<svg xmlns="http://www.w3.org/2000/svg" viewBox="0 0 24 24"><defs><style>.cls-1{fill:none;}.cls-2{fill:#0364b8;}.cls-3{fill:#0078d4;}.cls-4{fill:#1490df;}.cls-5{fill:#28a8ea;}</style></defs><title>OneDrive_24x</title><g id="OneDrive"><rect class="cls-1" width="24" height="24"/><path class="cls-2" d="M14.5,15l4.95-4.74A7.5,7.5,0,0,0,5.92,8C6,8,14.5,15,14.5,15Z"/><path class="cls-3" d="M9.15,8.89h0A6,6,0,0,0,6,8H5.92a6,6,0,0,0-4.84,9.43L8.5,16.5l5.69-4.59Z"/><path class="cls-4" d="M19.45,10.26h-.32a4.84,4.84,0,0,0-1.94.4h0l-3,1.26L17.5,16l5.92,1.44a4.88,4.88,0,0,0-4-7.18Z"/><path class="cls-5" d="M1.08,17.43A6,6,0,0,0,6,20H19.13a4.89,4.89,0,0,0,4.29-2.56l-9.23-5.53Z"/></g></svg>