<?xml version="1.0" encoding="UTF-8" standalone="no"?>
<svg xmlns="http://www.w3.org/2000/svg" xmlns:xlink="http://www.w3.org/1999/xlink" style="isolation:isolate" viewBox="0 0 256 256" width="256pt" height="256pt">
<path d=" M 48 56 C 48 60.418 44.418 64 40 64 C 35.582 64 32 60.418 32 56 C 32 51.582 35.582 48 40 48 C 44.418 48 48 51.582 48 56 Z  M 72 56 C 72 60.418 68.418 64 64 64 C 59.582 64 56 60.418 56 56 C 56 51.582 59.582 48 64 48 C 68.418 48 72 51.582 72 56 Z  M 88 64 C 92.418 64 96 60.418 96 56 C 96 51.582 92.418 48 88 48 C 83.582 48 80 51.582 80 56 C 80 60.418 83.582 64 88 64 Z " fill="rgb(255,255,255)"/>
<path d=" M 8 16 C 3.582 16 0 19.582 0 24 L 0 232 C 0 236.418 3.582 240 8 240 L 248 240 C 252.418 240 256 236.418 256 232 L 256 24 C 256 19.582 252.418 16 248 16 L 8 16 Z  M 16 80 L 16 32 L 240 32 L 240 80 L 16 80 Z  M 16 96 L 240 96 L 240 224 L 16 224 L 16 96 Z " fill="rgb(255,255,255)"/>
<path d=" M 185.973 115.173 C 188.067 117.262 189.244 120.098 189.244 123.055 C 189.244 126.012 188.067 128.848 185.973 130.937 L 119.18 197.73 C 117.092 199.823 114.256 201 111.299 201 C 108.342 201 105.506 199.823 103.417 197.73 L 70.021 164.333 C 65.668 159.98 65.668 152.923 70.021 148.57 C 74.374 144.217 81.431 144.217 85.784 148.57 L 111.299 174.107 L 170.21 115.173 C 172.299 113.08 175.134 111.903 178.092 111.903 C 181.049 111.903 183.885 113.08 185.973 115.173 Z " fill="rgb(255,255,255)"/>
</svg>