<svg width="32" height="9" viewBox="0 0 32 9" fill="none" xmlns="http://www.w3.org/2000/svg">
<path d="M2.629 8.132C1.991 8.132 1.49233 7.98533 1.133 7.692C0.781 7.39133 0.605 6.97333 0.605 6.438C0.605 5.92467 0.773667 5.53233 1.111 5.261C1.45567 4.98967 1.95067 4.854 2.596 4.854H4.235V4.755C4.235 4.38833 4.147 4.128 3.971 3.974C3.795 3.81267 3.50167 3.732 3.091 3.732C2.44567 3.732 1.84433 3.89333 1.287 4.216L0.902 3.171C1.584 2.81167 2.36133 2.632 3.234 2.632C4.026 2.632 4.60533 2.797 4.972 3.127C5.346 3.457 5.533 3.974 5.533 4.678V8H4.576L4.466 7.549C4.18 7.75433 3.88667 7.90467 3.586 8C3.29267 8.088 2.97367 8.132 2.629 8.132ZM2.904 7.032C3.40267 7.032 3.84633 6.922 4.235 6.702V5.833H2.717C2.43833 5.833 2.23667 5.88067 2.112 5.976C1.98733 6.064 1.925 6.20333 1.925 6.394C1.925 6.60667 2.002 6.768 2.156 6.878C2.31733 6.98067 2.56667 7.032 2.904 7.032ZM8.92186 8V3.93H6.89786V2.764H10.2199V6.834H12.2439V8H8.92186ZM9.46086 1.818C9.21153 1.818 9.00253 1.73367 8.83386 1.565C8.66519 1.39633 8.58086 1.18733 8.58086 0.938C8.58086 0.688666 8.66519 0.479666 8.83386 0.310999C9.00253 0.142333 9.21153 0.0579993 9.46086 0.0579993C9.71019 0.0579993 9.91919 0.142333 10.0879 0.310999C10.2565 0.479666 10.3409 0.688666 10.3409 0.938C10.3409 1.18733 10.2565 1.39633 10.0879 1.565C9.91919 1.73367 9.71019 1.818 9.46086 1.818Z" fill="#F73155"/>
<path d="M16.3697 8.132C15.4017 8.132 14.6611 7.81667 14.1477 7.186C13.6417 6.548 13.3887 5.62767 13.3887 4.425C13.3887 3.22233 13.6417 2.30567 14.1477 1.675C14.6611 1.037 15.4017 0.717999 16.3697 0.717999C17.1764 0.717999 17.8731 0.978333 18.4597 1.499L17.7887 2.522C17.3634 2.14067 16.8941 1.95 16.3807 1.95C15.2807 1.95 14.7307 2.775 14.7307 4.425C14.7307 6.075 15.2807 6.9 16.3807 6.9C16.6741 6.9 16.9454 6.84133 17.1947 6.724C17.4441 6.60667 17.6934 6.42333 17.9427 6.174L18.6907 7.131C18.3534 7.47567 18.0014 7.72867 17.6347 7.89C17.2681 8.05133 16.8464 8.132 16.3697 8.132ZM21.7716 8.132C21.1336 8.132 20.6349 7.98533 20.2756 7.692C19.9236 7.39133 19.7476 6.97333 19.7476 6.438C19.7476 5.92467 19.9162 5.53233 20.2536 5.261C20.5982 4.98967 21.0932 4.854 21.7386 4.854H23.3776V4.755C23.3776 4.38833 23.2896 4.128 23.1136 3.974C22.9376 3.81267 22.6442 3.732 22.2336 3.732C21.5882 3.732 20.9869 3.89333 20.4296 4.216L20.0446 3.171C20.7266 2.81167 21.5039 2.632 22.3766 2.632C23.1686 2.632 23.7479 2.797 24.1146 3.127C24.4886 3.457 24.6756 3.974 24.6756 4.678V8H23.7186L23.6086 7.549C23.3226 7.75433 23.0292 7.90467 22.7286 8C22.4352 8.088 22.1162 8.132 21.7716 8.132ZM22.0466 7.032C22.5452 7.032 22.9889 6.922 23.3776 6.702V5.833H21.8596C21.5809 5.833 21.3792 5.88067 21.2546 5.976C21.1299 6.064 21.0676 6.20333 21.0676 6.394C21.0676 6.60667 21.1446 6.768 21.2986 6.878C21.4599 6.98067 21.7092 7.032 22.0466 7.032ZM29.8244 8.132C28.4751 8.132 27.8004 7.461 27.8004 6.119V1.367H25.7764V0.19H29.0984V5.921C29.0984 6.295 29.1681 6.559 29.3074 6.713C29.4541 6.867 29.7034 6.944 30.0554 6.944C30.4881 6.944 30.9061 6.81933 31.3094 6.57L31.6394 7.67C31.1114 7.978 30.5064 8.132 29.8244 8.132Z" fill="#3AA558"/>
</svg>
