<?xml version="1.0" encoding="UTF-8" standalone="no"?>
<svg xmlns="http://www.w3.org/2000/svg" xmlns:xlink="http://www.w3.org/1999/xlink" style="isolation:isolate" viewBox="0 0 256 256" width="256pt" height="256pt">
<path d=" M 128 164.316 C 108.026 164.316 91.684 147.974 91.684 128 C 91.684 108.026 108.026 91.684 128 91.684 L 128 13 C 64.447 13 13 64.447 13 128 C 13 191.553 64.447 243 128 243 C 154.632 243 179.447 233.921 199.421 218.184 L 151 156.447 C 144.342 161.289 136.474 164.316 128 164.316 Z " fill="rgb(0,188,212)"/>
<path d=" M 164.316 128 L 243 128 C 243 64.447 191.553 13 128 13 L 128 91.684 C 147.974 91.684 164.316 108.026 164.316 128 Z " fill="rgb(68,138,255)"/>
<path d=" M 243 128 L 164.316 128 C 164.316 139.5 158.868 149.789 150.395 156.447 L 198.816 218.184 C 226.053 197 243 164.316 243 128 Z " fill="rgb(63,81,181)"/>
</svg>