<?xml version="1.0" encoding="UTF-8" standalone="no"?><svg xmlns="http://www.w3.org/2000/svg" xmlns:xlink="http://www.w3.org/1999/xlink" style="isolation:isolate" viewBox="0 0 256 256" width="256pt" height="256pt"><defs><clipPath id="_clipPath_O8PCozW2QfrSRx5dY3jQay62aQaykOTO"><rect width="256" height="256"/></clipPath></defs><g clip-path="url(#_clipPath_O8PCozW2QfrSRx5dY3jQay62aQaykOTO)"><path d=" M 255.999 180.785 C 255.999 165.806 251.513 151.341 243.026 138.956 C 236.92 130.047 229.059 122.649 219.948 117.152 C 230.674 106.994 237.386 92.636 237.386 76.732 C 237.386 46.022 212.4 21.036 181.691 21.036 C 163.48 21.036 146.422 30.042 136.061 44.826 C 133.428 44.443 130.738 44.236 128 44.236 C 125.262 44.236 122.572 44.444 119.939 44.826 C 109.577 30.042 92.519 21.036 74.309 21.036 C 43.599 21.036 18.614 46.022 18.614 76.732 C 18.614 92.636 25.325 106.994 36.052 117.152 C 26.941 122.648 19.079 130.047 12.974 138.955 C 4.487 151.341 0 165.806 0 180.785 L 0 211.765 L 53.691 211.765 L 53.691 234.964 L 202.31 234.964 L 202.31 211.765 L 256 211.765 L 256 180.785 L 255.999 180.785 Z  M 181.691 34.783 C 204.822 34.783 223.64 53.601 223.64 76.733 C 223.64 99.864 204.822 118.683 181.691 118.683 C 181.276 118.683 180.862 118.677 180.447 118.664 C 180.478 118.576 180.504 118.486 180.535 118.398 C 181.251 116.368 181.849 114.283 182.328 112.153 C 182.361 112.002 182.4 111.852 182.432 111.7 C 182.557 111.126 182.666 110.546 182.772 109.964 C 182.823 109.689 182.874 109.415 182.92 109.139 C 183.007 108.62 183.085 108.099 183.157 107.576 C 183.207 107.213 183.253 106.849 183.296 106.485 C 183.35 106.023 183.403 105.561 183.447 105.095 C 183.491 104.62 183.524 104.145 183.555 103.669 C 183.58 103.293 183.611 102.919 183.628 102.542 C 183.666 101.733 183.687 100.923 183.69 100.112 C 183.69 100.052 183.695 99.994 183.695 99.933 C 183.695 99.901 183.692 99.869 183.692 99.836 C 183.691 99.008 183.667 98.185 183.629 97.364 C 183.618 97.126 183.604 96.888 183.59 96.65 C 183.55 95.952 183.497 95.258 183.432 94.568 C 183.416 94.411 183.404 94.254 183.388 94.098 C 181.311 74.023 168.629 56.841 150.333 48.893 C 158.217 40.036 169.621 34.783 181.691 34.783 Z  M 113.485 60.571 C 113.619 60.522 113.754 60.476 113.888 60.428 C 114.306 60.279 114.726 60.137 115.149 60 C 115.469 59.898 115.792 59.799 116.116 59.704 C 116.352 59.635 116.588 59.568 116.825 59.502 C 117.249 59.386 117.674 59.272 118.104 59.169 C 121.279 58.397 124.59 57.979 127.998 57.979 C 131.409 57.982 134.722 58.401 137.898 59.172 C 138.325 59.275 138.747 59.388 139.169 59.503 C 139.409 59.57 139.65 59.637 139.888 59.708 C 140.208 59.802 140.527 59.9 140.844 60.001 C 141.272 60.139 141.698 60.282 142.12 60.433 C 142.25 60.479 142.38 60.523 142.509 60.571 C 156.538 65.759 167.057 78.245 169.438 93.397 C 169.456 93.518 169.474 93.64 169.492 93.761 C 169.568 94.275 169.632 94.792 169.689 95.311 C 169.71 95.502 169.732 95.693 169.751 95.884 C 169.796 96.358 169.83 96.835 169.86 97.313 C 169.872 97.518 169.889 97.722 169.899 97.928 C 169.928 98.539 169.944 99.153 169.946 99.771 C 169.946 99.825 169.949 99.877 169.949 99.93 C 169.949 99.955 169.948 99.981 169.948 100.005 C 169.946 100.603 169.929 101.197 169.902 101.789 C 169.894 101.975 169.886 102.161 169.875 102.347 C 169.843 102.919 169.8 103.488 169.745 104.053 C 169.724 104.271 169.695 104.489 169.67 104.707 C 169.628 105.073 169.581 105.438 169.531 105.801 C 169.491 106.083 169.451 106.366 169.406 106.647 C 169.336 107.075 169.259 107.501 169.177 107.925 C 169.103 108.302 169.023 108.678 168.939 109.053 C 168.889 109.28 168.836 109.506 168.782 109.73 C 168.648 110.288 168.501 110.842 168.344 111.394 C 168.282 111.613 168.223 111.833 168.157 112.051 C 168.062 112.367 167.959 112.68 167.856 112.994 C 167.774 113.244 167.689 113.494 167.602 113.743 C 167.503 114.025 167.406 114.308 167.301 114.589 C 167.123 115.065 166.936 115.537 166.742 116.005 C 166.655 116.214 166.563 116.421 166.473 116.629 C 166.303 117.019 166.129 117.407 165.947 117.79 C 165.926 117.835 165.905 117.881 165.883 117.926 C 165.818 118.062 165.753 118.199 165.687 118.335 C 165.483 118.75 165.272 119.161 165.054 119.567 C 164.97 119.725 164.888 119.886 164.801 120.043 C 164.796 120.053 164.79 120.063 164.785 120.073 C 164.547 120.506 164.299 120.932 164.047 121.355 C 163.946 121.523 163.847 121.691 163.745 121.857 C 163.47 122.303 163.188 122.744 162.897 123.178 C 162.716 123.448 162.527 123.713 162.34 123.979 C 162.182 124.204 162.023 124.431 161.861 124.653 C 161.65 124.94 161.434 125.224 161.216 125.506 C 161.067 125.698 160.918 125.888 160.766 126.078 C 160.535 126.367 160.302 126.654 160.065 126.936 C 159.917 127.112 159.765 127.284 159.615 127.456 C 159.367 127.74 159.12 128.024 158.866 128.301 C 158.715 128.466 158.558 128.624 158.404 128.786 C 157.99 129.222 157.567 129.649 157.136 130.068 C 156.879 130.316 156.624 130.565 156.362 130.806 C 156.18 130.973 155.994 131.135 155.809 131.299 C 155.508 131.567 155.205 131.831 154.896 132.09 C 154.74 132.221 154.582 132.351 154.423 132.48 C 154.05 132.784 153.672 133.081 153.287 133.373 C 153.183 133.452 153.08 133.532 152.975 133.611 C 145.992 138.802 137.349 141.879 127.999 141.879 C 118.649 141.879 110.004 138.801 103.021 133.609 C 102.918 133.532 102.817 133.453 102.715 133.375 C 102.329 133.083 101.949 132.783 101.574 132.478 C 101.417 132.349 101.26 132.221 101.104 132.09 C 100.794 131.831 100.491 131.565 100.188 131.297 C 100.005 131.133 99.819 130.972 99.638 130.806 C 99.375 130.564 99.119 130.314 98.862 130.066 C 98.429 129.646 98.005 129.218 97.59 128.78 C 97.438 128.62 97.282 128.464 97.133 128.302 C 96.878 128.024 96.632 127.739 96.384 127.455 C 96.234 127.283 96.082 127.112 95.935 126.936 C 95.696 126.654 95.464 126.367 95.233 126.079 C 95.082 125.889 94.931 125.699 94.783 125.506 C 94.565 125.224 94.35 124.941 94.139 124.653 C 93.976 124.431 93.817 124.204 93.658 123.978 C 93.471 123.712 93.283 123.448 93.103 123.179 C 92.811 122.743 92.527 122.3 92.251 121.853 C 92.15 121.688 92.053 121.523 91.954 121.357 C 91.698 120.928 91.447 120.496 91.205 120.057 C 91.117 119.895 91.033 119.731 90.946 119.569 C 90.728 119.161 90.516 118.749 90.312 118.333 C 90.239 118.185 90.168 118.036 90.098 117.888 C 90.087 117.865 90.076 117.842 90.066 117.82 C 89.876 117.418 89.693 117.013 89.515 116.604 C 89.431 116.409 89.345 116.216 89.264 116.02 C 89.065 115.542 88.874 115.06 88.692 114.573 C 88.594 114.31 88.503 114.045 88.41 113.781 C 88.315 113.509 88.223 113.236 88.133 112.961 C 88.036 112.664 87.938 112.367 87.847 112.069 C 87.712 111.623 87.584 111.174 87.464 110.723 C 87.379 110.406 87.303 110.086 87.225 109.768 C 87.165 109.517 87.107 109.266 87.051 109.014 C 86.982 108.704 86.913 108.396 86.851 108.085 C 86.755 107.601 86.668 107.115 86.59 106.625 C 86.547 106.361 86.51 106.097 86.472 105.833 C 86.416 105.442 86.366 105.049 86.322 104.654 C 86.3 104.46 86.274 104.265 86.254 104.071 C 86.197 103.491 86.154 102.908 86.121 102.322 C 86.111 102.154 86.104 101.985 86.096 101.817 C 86.068 101.191 86.048 100.563 86.048 99.93 C 86.048 99.253 86.067 98.58 86.1 97.91 C 86.109 97.728 86.124 97.547 86.134 97.366 C 86.164 96.862 86.201 96.361 86.249 95.862 C 86.265 95.688 86.285 95.515 86.304 95.342 C 86.363 94.801 86.43 94.264 86.509 93.73 C 86.524 93.626 86.54 93.522 86.556 93.418 C 88.929 78.256 99.45 65.762 113.485 60.571 Z  M 32.359 76.733 C 32.359 53.602 51.178 34.783 74.309 34.783 C 86.38 34.783 97.783 40.037 105.667 48.892 C 87.365 56.842 74.68 74.033 72.609 94.116 C 72.595 94.252 72.584 94.389 72.571 94.526 C 72.503 95.241 72.448 95.959 72.407 96.682 C 72.395 96.902 72.381 97.121 72.371 97.341 C 72.331 98.201 72.305 99.064 72.305 99.933 C 72.305 100.809 72.33 101.684 72.371 102.559 C 72.388 102.911 72.417 103.259 72.439 103.609 C 72.473 104.112 72.507 104.615 72.554 105.117 C 72.595 105.563 72.646 106.006 72.698 106.449 C 72.744 106.836 72.792 107.22 72.845 107.605 C 72.916 108.11 72.991 108.614 73.074 109.115 C 73.124 109.412 73.179 109.709 73.234 110.006 C 73.337 110.567 73.442 111.126 73.562 111.681 C 73.601 111.864 73.647 112.045 73.688 112.227 C 74.155 114.291 74.734 116.312 75.424 118.282 C 75.468 118.409 75.507 118.538 75.551 118.664 C 75.137 118.677 74.722 118.683 74.308 118.683 C 51.178 118.682 32.359 99.864 32.359 76.733 Z  M 65.215 164.362 C 65.063 164.6 64.919 164.843 64.771 165.083 C 64.457 165.59 64.145 166.098 63.844 166.612 C 63.676 166.898 63.514 167.187 63.35 167.476 C 63.079 167.952 62.812 168.43 62.552 168.911 C 62.389 169.214 62.228 169.519 62.068 169.823 C 61.818 170.302 61.574 170.784 61.335 171.267 C 61.184 171.571 61.035 171.874 60.889 172.179 C 60.646 172.689 60.411 173.202 60.18 173.716 C 60.054 173.996 59.925 174.274 59.803 174.555 C 59.535 175.17 59.279 175.791 59.028 176.414 C 58.955 176.596 58.877 176.776 58.805 176.958 C 58.487 177.767 58.182 178.581 57.894 179.4 C 57.828 179.588 57.769 179.777 57.703 179.965 C 57.486 180.596 57.274 181.229 57.074 181.865 C 56.983 182.157 56.899 182.45 56.811 182.743 C 56.649 183.282 56.49 183.821 56.341 184.364 C 56.252 184.687 56.168 185.011 56.083 185.335 C 55.947 185.856 55.817 186.379 55.693 186.903 C 55.614 187.235 55.537 187.567 55.463 187.9 C 55.345 188.431 55.235 188.964 55.128 189.498 C 55.064 189.819 54.998 190.14 54.938 190.462 C 54.83 191.044 54.734 191.628 54.639 192.213 C 54.595 192.488 54.547 192.761 54.505 193.036 C 54.378 193.895 54.261 194.757 54.164 195.622 C 54.162 195.632 54.162 195.642 54.161 195.653 C 54.072 196.44 53.996 197.228 53.932 198.019 L 13.746 198.019 L 13.746 180.785 C 13.746 157.241 27.281 136.103 48.486 126.057 C 56.211 130.117 64.993 132.428 74.309 132.428 C 77.003 132.428 79.705 132.229 82.387 131.835 C 82.805 132.431 83.23 133.02 83.669 133.599 C 83.818 133.793 83.972 133.983 84.123 134.176 C 84.557 134.731 84.998 135.28 85.453 135.818 C 85.639 136.039 85.83 136.255 86.02 136.472 C 86.446 136.962 86.879 137.445 87.322 137.918 C 87.554 138.168 87.79 138.413 88.027 138.659 C 88.432 139.076 88.842 139.487 89.259 139.892 C 89.416 140.044 89.564 140.204 89.722 140.355 C 89.124 140.716 88.533 141.085 87.946 141.463 C 87.851 141.524 87.757 141.589 87.663 141.65 C 87.076 142.031 86.496 142.42 85.922 142.817 C 85.723 142.954 85.525 143.093 85.327 143.232 C 84.815 143.593 84.309 143.96 83.806 144.333 C 83.647 144.451 83.487 144.567 83.329 144.686 C 82.69 145.169 82.058 145.661 81.435 146.164 C 81.299 146.274 81.166 146.388 81.03 146.499 C 80.533 146.905 80.042 147.318 79.557 147.738 C 79.368 147.9 79.181 148.063 78.995 148.228 C 78.509 148.656 78.029 149.09 77.554 149.531 C 77.43 149.646 77.304 149.758 77.181 149.874 C 76.598 150.423 76.024 150.982 75.458 151.55 C 75.311 151.698 75.168 151.848 75.022 151.997 C 74.589 152.439 74.161 152.885 73.738 153.338 C 73.571 153.518 73.403 153.698 73.237 153.881 C 72.761 154.4 72.292 154.927 71.831 155.461 C 71.759 155.544 71.684 155.626 71.612 155.71 C 71.086 156.324 70.572 156.949 70.065 157.581 C 69.923 157.757 69.785 157.935 69.645 158.114 C 69.264 158.598 68.888 159.087 68.518 159.582 C 68.375 159.773 68.232 159.962 68.091 160.155 C 67.607 160.815 67.129 161.48 66.665 162.157 C 66.167 162.884 65.685 163.62 65.215 164.362 Z  M 67.437 221.219 L 67.437 211.765 L 67.437 203.985 C 67.437 203.222 67.451 202.462 67.479 201.704 C 67.488 201.455 67.508 201.207 67.52 200.959 C 67.545 200.453 67.569 199.946 67.606 199.442 C 67.628 199.137 67.663 198.833 67.69 198.528 C 67.73 198.084 67.766 197.64 67.815 197.198 C 67.852 196.875 67.899 196.554 67.94 196.232 C 67.994 195.812 68.044 195.392 68.106 194.974 C 68.156 194.641 68.217 194.311 68.272 193.98 C 68.339 193.577 68.402 193.173 68.477 192.772 C 68.541 192.434 68.615 192.098 68.685 191.761 C 68.764 191.372 68.841 190.981 68.928 190.595 C 69.005 190.254 69.093 189.917 69.175 189.577 C 69.268 189.199 69.357 188.819 69.456 188.443 C 69.547 188.102 69.648 187.763 69.744 187.425 C 69.848 187.056 69.95 186.686 70.061 186.319 C 70.165 185.979 70.279 185.64 70.388 185.302 C 70.505 184.942 70.619 184.582 70.742 184.225 C 70.859 183.888 70.984 183.553 71.107 183.218 C 71.236 182.865 71.362 182.511 71.498 182.16 C 71.627 181.827 71.764 181.498 71.898 181.166 C 72.039 180.821 72.178 180.473 72.325 180.13 C 72.467 179.799 72.617 179.472 72.765 179.145 C 72.917 178.807 73.067 178.469 73.226 178.135 C 73.38 177.808 73.542 177.486 73.702 177.162 C 73.866 176.832 74.028 176.502 74.197 176.175 C 74.364 175.854 74.538 175.536 74.71 175.218 C 74.885 174.895 75.057 174.573 75.237 174.254 C 75.416 173.938 75.601 173.627 75.785 173.314 C 75.971 172.999 76.155 172.684 76.346 172.372 C 76.537 172.062 76.733 171.757 76.929 171.45 C 77.126 171.143 77.321 170.836 77.523 170.532 C 77.725 170.228 77.933 169.929 78.14 169.629 C 78.347 169.33 78.553 169.031 78.765 168.735 C 78.978 168.439 79.197 168.146 79.417 167.852 C 79.634 167.562 79.85 167.271 80.072 166.984 C 80.296 166.695 80.526 166.41 80.755 166.124 C 80.983 165.841 81.211 165.558 81.443 165.279 C 81.678 164.999 81.917 164.722 82.156 164.445 C 82.395 164.17 82.634 163.894 82.878 163.622 C 83.122 163.35 83.371 163.082 83.62 162.814 C 83.869 162.546 84.118 162.28 84.371 162.018 C 84.625 161.754 84.885 161.494 85.144 161.235 C 85.403 160.976 85.664 160.718 85.928 160.463 C 86.191 160.21 86.458 159.96 86.727 159.71 C 86.997 159.46 87.267 159.21 87.542 158.964 C 87.815 158.72 88.091 158.478 88.37 158.239 C 88.649 157.997 88.93 157.757 89.214 157.521 C 89.496 157.286 89.781 157.054 90.069 156.824 C 90.358 156.592 90.649 156.362 90.944 156.134 C 91.234 155.91 91.528 155.689 91.823 155.469 C 92.122 155.245 92.424 155.025 92.729 154.807 C 93.027 154.593 93.328 154.383 93.632 154.174 C 93.942 153.96 94.254 153.749 94.569 153.541 C 94.875 153.339 95.183 153.139 95.493 152.942 C 95.814 152.738 96.137 152.536 96.462 152.338 C 96.776 152.147 97.091 151.958 97.409 151.773 C 97.739 151.58 98.071 151.389 98.406 151.202 C 98.727 151.021 99.05 150.843 99.375 150.669 C 99.715 150.486 100.058 150.307 100.403 150.129 C 100.73 149.961 101.059 149.795 101.39 149.632 C 101.651 149.505 101.914 149.381 102.177 149.257 C 109.902 153.317 118.684 155.628 128 155.628 C 137.316 155.628 146.098 153.317 153.822 149.257 C 154.083 149.38 154.344 149.503 154.603 149.63 C 154.938 149.795 155.27 149.962 155.601 150.132 C 155.942 150.307 156.282 150.485 156.619 150.665 C 156.947 150.842 157.274 151.022 157.598 151.204 C 157.929 151.39 158.257 151.577 158.583 151.769 C 158.905 151.957 159.225 152.149 159.542 152.342 C 159.863 152.538 160.182 152.736 160.498 152.938 C 160.812 153.138 161.124 153.34 161.434 153.545 C 161.746 153.751 162.054 153.96 162.361 154.171 C 162.667 154.382 162.971 154.594 163.273 154.81 C 163.575 155.026 163.873 155.244 164.17 155.465 C 164.468 155.687 164.764 155.91 165.058 156.137 C 165.349 156.362 165.638 156.59 165.925 156.821 C 166.214 157.052 166.501 157.285 166.786 157.522 C 167.068 157.757 167.347 157.995 167.625 158.235 C 167.904 158.476 168.183 158.719 168.458 158.966 C 168.73 159.21 168.999 159.457 169.266 159.705 C 169.537 159.957 169.807 160.21 170.073 160.466 C 170.335 160.718 170.592 160.974 170.849 161.23 C 171.11 161.491 171.371 161.753 171.627 162.019 C 171.879 162.28 172.127 162.544 172.374 162.809 C 172.625 163.079 172.876 163.35 173.122 163.624 C 173.364 163.894 173.601 164.166 173.838 164.44 C 174.079 164.718 174.32 164.997 174.556 165.28 C 174.788 165.557 175.014 165.839 175.24 166.12 C 175.471 166.407 175.702 166.694 175.927 166.985 C 176.148 167.27 176.364 167.559 176.579 167.849 C 176.799 168.143 177.019 168.438 177.234 168.736 C 177.445 169.03 177.65 169.328 177.856 169.625 C 178.064 169.926 178.273 170.227 178.476 170.533 C 178.676 170.834 178.87 171.14 179.065 171.445 C 179.262 171.753 179.46 172.061 179.652 172.373 C 179.842 172.682 180.025 172.995 180.209 173.307 C 180.394 173.622 180.581 173.936 180.761 174.254 C 180.94 174.572 181.112 174.893 181.286 175.214 C 181.459 175.533 181.634 175.852 181.801 176.175 C 181.97 176.5 182.13 176.831 182.294 177.16 C 182.454 177.484 182.617 177.807 182.772 178.134 C 182.93 178.468 183.08 178.805 183.231 179.142 C 183.379 179.471 183.53 179.799 183.672 180.131 C 183.818 180.471 183.955 180.815 184.095 181.159 C 184.232 181.493 184.37 181.825 184.5 182.162 C 184.635 182.511 184.761 182.863 184.889 183.215 C 185.012 183.551 185.138 183.886 185.255 184.225 C 185.379 184.583 185.493 184.945 185.61 185.306 C 185.719 185.643 185.832 185.979 185.935 186.319 C 186.047 186.686 186.148 187.056 186.253 187.425 C 186.35 187.764 186.45 188.102 186.541 188.443 C 186.64 188.819 186.729 189.198 186.822 189.577 C 186.905 189.916 186.992 190.254 187.069 190.595 C 187.157 190.981 187.232 191.371 187.313 191.759 C 187.382 192.097 187.456 192.433 187.52 192.772 C 187.595 193.17 187.657 193.57 187.724 193.97 C 187.78 194.305 187.842 194.638 187.892 194.974 C 187.954 195.389 188.003 195.807 188.057 196.223 C 188.099 196.548 188.147 196.871 188.183 197.198 C 188.233 197.639 188.269 198.084 188.308 198.528 C 188.336 198.833 188.37 199.136 188.393 199.442 C 188.431 199.945 188.453 200.453 188.478 200.959 C 188.491 201.207 188.511 201.455 188.519 201.704 C 188.548 202.462 188.562 203.222 188.562 203.985 L 188.562 211.764 L 188.562 221.219 L 67.437 221.219 L 67.437 221.219 Z  M 202.071 198.019 C 201.936 196.345 201.742 194.681 201.496 193.027 C 201.457 192.765 201.41 192.506 201.368 192.244 C 201.273 191.646 201.173 191.049 201.062 190.453 C 201.004 190.14 200.94 189.828 200.877 189.515 C 200.77 188.972 200.657 188.429 200.537 187.889 C 200.464 187.563 200.388 187.238 200.311 186.913 C 200.185 186.383 200.053 185.854 199.916 185.327 C 199.833 185.007 199.75 184.689 199.662 184.37 C 199.511 183.821 199.35 183.275 199.187 182.73 C 199.1 182.443 199.018 182.155 198.928 181.869 C 198.725 181.223 198.51 180.581 198.29 179.941 C 198.228 179.762 198.172 179.581 198.108 179.403 C 197.818 178.581 197.514 177.765 197.194 176.953 C 197.126 176.779 197.051 176.608 196.981 176.434 C 196.727 175.803 196.467 175.175 196.196 174.55 C 196.075 174.274 195.948 174 195.825 173.724 C 195.591 173.205 195.354 172.687 195.108 172.173 C 194.965 171.872 194.816 171.573 194.669 171.274 C 194.427 170.786 194.181 170.3 193.928 169.817 C 193.77 169.515 193.611 169.214 193.449 168.913 C 193.188 168.43 192.92 167.951 192.648 167.472 C 192.484 167.185 192.323 166.898 192.156 166.612 C 191.853 166.096 191.541 165.586 191.225 165.076 C 191.077 164.838 190.935 164.598 190.785 164.362 C 190.314 163.621 189.831 162.885 189.332 162.157 C 188.868 161.479 188.39 160.814 187.906 160.154 C 187.766 159.963 187.623 159.774 187.482 159.584 C 187.11 159.087 186.733 158.597 186.35 158.11 C 186.212 157.935 186.075 157.757 185.935 157.584 C 185.427 156.95 184.911 156.323 184.383 155.708 C 184.315 155.628 184.244 155.551 184.175 155.471 C 183.711 154.933 183.238 154.402 182.759 153.878 C 182.594 153.698 182.428 153.52 182.262 153.342 C 181.837 152.886 181.406 152.436 180.97 151.992 C 180.827 151.846 180.686 151.698 180.541 151.553 C 179.974 150.984 179.398 150.423 178.814 149.873 C 178.693 149.76 178.57 149.65 178.449 149.537 C 177.971 149.094 177.489 148.657 177.001 148.227 C 176.815 148.063 176.628 147.901 176.441 147.739 C 175.955 147.319 175.463 146.906 174.966 146.499 C 174.831 146.389 174.698 146.275 174.562 146.165 C 173.939 145.662 173.308 145.17 172.669 144.687 C 172.51 144.567 172.348 144.45 172.188 144.331 C 171.687 143.96 171.184 143.595 170.674 143.236 C 170.474 143.095 170.274 142.955 170.073 142.816 C 169.504 142.424 168.93 142.039 168.35 141.662 C 168.248 141.596 168.148 141.527 168.047 141.462 C 167.461 141.086 166.872 140.717 166.275 140.357 C 166.429 140.211 166.573 140.055 166.725 139.906 C 167.151 139.494 167.57 139.074 167.982 138.648 C 168.212 138.411 168.441 138.172 168.667 137.93 C 169.117 137.449 169.555 136.958 169.988 136.461 C 170.173 136.25 170.357 136.041 170.538 135.826 C 170.999 135.281 171.447 134.723 171.888 134.159 C 172.032 133.975 172.18 133.793 172.322 133.607 C 172.764 133.026 173.19 132.434 173.61 131.836 C 176.292 132.23 178.994 132.429 181.689 132.429 C 191.005 132.429 199.787 130.119 207.511 126.057 C 228.717 136.104 242.252 157.241 242.252 180.786 L 242.252 198.019 L 202.071 198.019 L 202.071 198.019 Z " fill="rgb(0,0,0)"/></g></svg>