<?xml version="1.0" encoding="UTF-8" standalone="no"?>
<svg xmlns="http://www.w3.org/2000/svg" xmlns:xlink="http://www.w3.org/1999/xlink" style="isolation:isolate" viewBox="0 0 256 256" width="256pt" height="256pt">
<path d=" M 247.726 91.85 L 170.982 80.697 L 136.675 11.147 C 135.738 9.243 134.197 7.701 132.293 6.764 C 127.517 4.406 121.714 6.371 119.326 11.147 L 85.019 80.697 L 8.275 91.85 C 6.16 92.153 4.225 93.15 2.744 94.661 C -0.984 98.493 -0.903 104.622 2.925 108.354 L 58.451 162.488 L 45.332 238.93 C 44.705 242.558 46.194 246.227 49.173 248.39 C 52.152 250.553 56.102 250.835 59.357 249.116 L 128.001 213.026 L 196.644 249.116 C 198.518 250.114 200.694 250.446 202.78 250.083 C 208.039 249.177 211.576 244.189 210.669 238.93 L 197.551 162.488 L 253.076 108.354 C 254.587 106.873 255.585 104.938 255.887 102.822 C 256.703 97.533 253.015 92.636 247.726 91.85 L 247.726 91.85 Z " fill="rgb(227,227,52)"/>
</svg>