<svg xmlns="http://www.w3.org/2000/svg" viewBox="0 0 2048.25 2048.25">
<title>People</title>
<g id="uniE716"><path d="M1636 1355q65 -33 117.5 -81.5t89.5 -108t57 -128t20 -141.5h-128q0 79 -30.5 149t-82.5 122t-122 82.5t-149 30.5t-149 -30.5t-122 -82.5t-82.5 -122t-30.5 -149q0 -91 -41.5 -173t-114.5 -136q65 -33 117.5 -81.5t89.5 -108t57 -128t20 -141.5h-128q0 79 -30.5 149
t-82.5 122t-122 82.5t-149 30.5t-149 -30.5t-122 -82.5t-82.5 -122t-30.5 -149h-128q0 73 20 141.5t57 128t89.5 108t117.5 81.5q-73 54 -114.5 136t-41.5 173q0 79 30.5 149t82.5 122t122 82.5t149 30.5q91 0 173 -41.5t136 -114.5q38 75 97 134t134 97q-73 54 -114.5 136
t-41.5 173q0 79 30.5 149t82.5 122t122 82.5t149 30.5t149 -30.5t122 -82.5t82.5 -122t30.5 -149q0 -91 -41.5 -173t-114.5 -136zM640 640q52 0 99 20.5t81.5 55t55 81t20.5 99.5q0 52 -20.5 99t-55 81.5t-81.5 55t-99 20.5q-53 0 -99.5 -20.5t-81 -55t-55 -81.5t-20.5 -99
q0 -53 20.5 -99.5t55 -81t81 -55t99.5 -20.5zM1152 1664q0 -53 20.5 -99.5t55 -81t81 -55t99.5 -20.5q52 0 99 20.5t81.5 55t55 81t20.5 99.5q0 52 -20.5 99t-55 81.5t-81.5 55t-99 20.5q-53 0 -99.5 -20.5t-81 -55t-55 -81.5t-20.5 -99z" fill="#0078D7" transform="scale(1,-1) translate(0, -2048.25)" /></g>
</svg>