<svg width="16" height="16" viewBox="0 0 16 16" fill="none" xmlns="http://www.w3.org/2000/svg">
<path fill-rule="evenodd" clip-rule="evenodd" d="M10.2869 1.23531C10.4822 1.04005 10.7988 1.04005 10.994 1.23531L12.1254 2.36668L13.6339 3.87518L14.7653 5.00655C14.9605 5.20181 14.9605 5.51839 14.7653 5.71366C14.57 5.90892 14.2534 5.90892 14.0582 5.71366L13.3345 4.98994L9.41506 10.2158L10.6169 11.4177C10.8122 11.6129 10.8122 11.9295 10.6169 12.1248C10.4217 12.32 10.1051 12.32 9.90981 12.1248L8.40132 10.6163L7.2456 9.46055C7.23833 9.46885 7.23073 9.47697 7.22281 9.48489L3.73441 12.9733C3.53915 13.1685 3.22257 13.1685 3.02731 12.9733C2.83204 12.778 2.83204 12.4614 3.02731 12.2662L6.5157 8.77778C6.52362 8.76986 6.53174 8.76227 6.54004 8.75499L5.38433 7.59928L3.87583 6.09078C3.68057 5.89552 3.68057 5.57894 3.87583 5.38367C4.0711 5.18841 4.38768 5.18841 4.58294 5.38367L5.7848 6.58553L11.0107 2.66614L10.2869 1.94242C10.0917 1.74716 10.0917 1.43058 10.2869 1.23531Z" fill="white"/>
<path fill-rule="evenodd" clip-rule="evenodd" d="M10.2869 1.23531C10.4822 1.04005 10.7988 1.04005 10.994 1.23531L12.1254 2.36668L13.6339 3.87518L14.7653 5.00655C14.9605 5.20181 14.9605 5.51839 14.7653 5.71366C14.57 5.90892 14.2534 5.90892 14.0582 5.71366L13.3345 4.98994L9.41506 10.2158L10.6169 11.4177C10.8122 11.6129 10.8122 11.9295 10.6169 12.1248C10.4217 12.32 10.1051 12.32 9.90981 12.1248L8.40132 10.6163L7.2456 9.46055C7.23833 9.46885 7.23073 9.47697 7.22281 9.48489L3.73441 12.9733C3.53915 13.1685 3.22257 13.1685 3.02731 12.9733C2.83204 12.778 2.83204 12.4614 3.02731 12.2662L6.5157 8.77778C6.52362 8.76986 6.53174 8.76227 6.54004 8.75499L5.38433 7.59928L3.87583 6.09078C3.68057 5.89552 3.68057 5.57894 3.87583 5.38367C4.0711 5.18841 4.38768 5.18841 4.58294 5.38367L5.7848 6.58553L11.0107 2.66614L10.2869 1.94242C10.0917 1.74716 10.0917 1.43058 10.2869 1.23531Z" fill="white"/>
</svg>
