<svg width="57" height="56" viewBox="0 0 57 56" fill="none" xmlns="http://www.w3.org/2000/svg">
    <path
        d="M47.5996 0H9.59961C4.62905 0 0.599609 4.02944 0.599609 9V47C0.599609 51.9706 4.62905 56 9.59961 56H47.5996C52.5702 56 56.5996 51.9706 56.5996 47V9C56.5996 4.02944 52.5702 0 47.5996 0Z"
        fill="#641E55" />
    <path
        d="M17.7739 14.3486C16.0191 14.3486 14.5996 12.9267 14.5996 11.1743C14.5996 9.42188 16.0215 8 17.7739 8C19.5264 8 20.9458 9.42188 20.9458 11.1743C20.9458 12.9267 19.5288 14.3486 17.7739 14.3486Z"
        fill="#FFD7D2" />
    <path
        d="M28.6148 14.3486C26.8599 14.3486 25.4404 12.9267 25.4404 11.1743C25.4404 9.42188 26.8623 8 28.6148 8C30.3672 8 31.7866 9.42188 31.7866 11.1743C31.7866 12.9267 30.3696 14.3486 28.6148 14.3486Z"
        fill="#FFD7D2" />
    <path
        d="M42.6284 11.1743C42.6284 9.42188 41.2089 8 39.4541 8C37.6992 8 36.2822 9.42188 36.2822 11.1743C36.2822 12.9267 37.7017 14.3486 39.4541 14.3486C41.2065 14.3486 42.6284 12.9267 42.6284 11.1743Z"
        fill="#FFD7D2" />
    <path
        d="M42.5751 47.1663H35.2008V37.06H22.0393V47.1663H14.665V21.6309H22.0393V31.7007H35.2008V21.6309H42.5751V47.1663Z"
        fill="#FFD7D2" />
</svg>
