<svg width="24" height="24" viewBox="0 0 24 24" fill="none" xmlns="http://www.w3.org/2000/svg">
<path d="M14.2178 3.00093C14.1504 3.00515 14.0839 3.01846 14.02 3.04048L3.51986 6.42872C3.36864 6.47744 3.23681 6.57292 3.14335 6.7014C3.04989 6.82987 2.99964 6.9847 2.99983 7.14357V15.7541C2.99843 15.8534 3.01679 15.9521 3.05385 16.0443C3.09091 16.1366 3.14593 16.2205 3.21571 16.2913C3.2855 16.3621 3.36865 16.4183 3.46035 16.4566C3.55204 16.495 3.65045 16.5147 3.74984 16.5147C3.84924 16.5147 3.94764 16.495 4.03934 16.4566C4.13103 16.4183 4.21419 16.3621 4.28397 16.2913C4.35375 16.2205 4.40878 16.1366 4.44584 16.0443C4.4829 15.9521 4.50126 15.8534 4.49985 15.7541V7.6885L14.48 4.46726C14.649 4.41531 14.7942 4.30534 14.89 4.15675C14.9858 4.00817 15.026 3.83052 15.0036 3.65515C14.9812 3.47979 14.8975 3.31798 14.7674 3.19828C14.6373 3.07859 14.4691 3.00869 14.2925 3.00093C14.2676 2.99969 14.2427 2.99969 14.2178 3.00093ZM17.2178 5.25096C17.1504 5.25519 17.0839 5.26849 17.0201 5.29052L6.5199 8.67875C6.36869 8.72748 6.23685 8.82296 6.14339 8.95143C6.04993 9.07991 5.99968 9.23473 5.99988 9.39361V18.0041C5.99847 18.1035 6.01683 18.2021 6.05389 18.2944C6.09095 18.3866 6.14597 18.4705 6.21576 18.5413C6.28554 18.6121 6.3687 18.6683 6.46039 18.7067C6.55209 18.745 6.65049 18.7648 6.74989 18.7648C6.84928 18.7648 6.94769 18.745 7.03938 18.7067C7.13108 18.6683 7.21423 18.6121 7.28402 18.5413C7.3538 18.4705 7.40882 18.3866 7.44588 18.2944C7.48294 18.2021 7.5013 18.1035 7.4999 18.0041V9.93854L17.48 6.7173C17.649 6.66534 17.7942 6.55537 17.89 6.40678C17.9858 6.2582 18.0261 6.08055 18.0036 5.90519C17.9812 5.72982 17.8976 5.56802 17.7675 5.44832C17.6374 5.32862 17.4691 5.25872 17.2925 5.25096C17.2676 5.24972 17.2427 5.24972 17.2178 5.25096ZM20.193 7.50539C20.1344 7.50983 20.0758 7.52199 20.0186 7.54055L9.51848 10.9288C9.20948 11.0293 8.99992 11.3181 8.99992 11.6436V20.2541C8.99992 20.4979 9.11829 20.7262 9.3178 20.8664C9.44605 20.9572 9.59693 21.0041 9.74993 21.0041C9.83468 21.0041 9.92014 20.9894 10.0019 20.9602L20.502 17.2101C20.8006 17.1044 21.0001 16.8213 21.0001 16.5041V8.25394C21.0001 8.01469 20.8853 7.78924 20.691 7.64749C20.5459 7.54173 20.3688 7.49207 20.193 7.50539Z" fill="black"/>
</svg>
