<?xml version="1.0" encoding="UTF-8" standalone="no"?><svg xmlns="http://www.w3.org/2000/svg" xmlns:xlink="http://www.w3.org/1999/xlink" style="isolation:isolate" viewBox="0 0 256 256" width="256pt" height="256pt"><defs><clipPath id="_clipPath_GGCDFgMz4W2eBGTvjt9mQ9zq6y0lk2LI"><rect width="256" height="256"/></clipPath></defs><g clip-path="url(#_clipPath_GGCDFgMz4W2eBGTvjt9mQ9zq6y0lk2LI)"><rect x="0" y="0.005" width="255.99" height="255.99" transform="matrix(1,0,0,1,0,0)" fill="none"/><path d=" M 154.661 159.999 L 207.459 109.441 C 199.594 78.77 174.379 55.625 143.149 50.408 C 111.919 45.191 80.55 58.886 63.144 85.335 C 63.998 85.335 154.661 159.999 154.661 159.999 Z " fill="rgb(3,100,184)"/><path d=" M 97.596 94.828 L 97.596 94.828 C 87.493 88.611 75.861 85.324 63.998 85.335 L 63.144 85.335 C 39.465 85.661 17.902 99.035 7.088 120.104 C -3.725 141.172 -2.02 166.489 11.52 185.918 L 90.663 175.998 L 151.354 127.04 L 97.596 94.828 Z " fill="rgb(0,120,212)"/><path d=" M 207.459 109.441 L 204.046 109.441 C 196.928 109.421 189.883 110.874 183.353 113.707 L 183.353 113.707 L 151.354 127.147 L 186.66 170.665 L 249.804 186.024 C 258.2 170.393 258.055 151.562 249.42 136.062 C 240.785 120.562 224.849 110.528 207.139 109.441 L 207.459 109.441 Z " fill="rgb(20,144,223)"/><path d=" M 11.52 185.918 C 23.48 203.084 43.076 213.32 63.998 213.33 L 204.046 213.33 C 223.148 213.294 240.702 202.819 249.804 186.024 L 151.354 127.04 L 11.52 185.918 Z " fill="rgb(40,168,234)"/></g></svg>