<svg width="8" height="8" viewBox="0 0 8 8" fill="none" xmlns="http://www.w3.org/2000/svg">
<path fill-rule="evenodd" clip-rule="evenodd" d="M7.49653 1.37758C7.72108 1.15303 7.72108 0.788961 7.49653 0.56441C7.27198 0.339858 6.90791 0.339858 6.68335 0.56441L3.98994 3.25782L1.29653 0.56441C1.07198 0.339858 0.707906 0.339858 0.483355 0.56441C0.258804 0.788961 0.258804 1.15303 0.483355 1.37758L3.17677 4.071L0.483355 6.76441C0.258804 6.98896 0.258804 7.35303 0.483355 7.57758C0.707906 7.80213 1.07198 7.80213 1.29653 7.57758L3.98994 4.88417L6.68335 7.57758C6.90791 7.80213 7.27198 7.80213 7.49653 7.57758C7.72108 7.35303 7.72108 6.98896 7.49653 6.76441L4.80311 4.071L7.49653 1.37758Z" fill="#53565F"/>
</svg>
