<?xml version="1.0" encoding="UTF-8" standalone="no"?>
<svg xmlns="http://www.w3.org/2000/svg" viewBox="0 0 256 256" width="256pt" height="256pt">
<path d=" M 67.664 29.953 C 63.516 29.953 60.122 33.347 60.122 37.496 L 60.122 218.504 C 60.122 222.653 63.516 226.047 67.664 226.047 L 105.374 226.047 L 105.374 195.878 C 105.374 183.387 115.508 173.252 128 173.252 C 140.492 173.252 150.626 183.387 150.626 195.878 L 150.626 226.047 L 188.336 226.047 C 192.484 226.047 195.878 222.653 195.878 218.504 L 195.878 37.496 C 195.878 33.347 192.484 29.953 188.336 29.953 L 67.664 29.953 Z  M 37.496 37.496 C 37.496 20.856 51.024 7.327 67.664 7.327 L 188.336 7.327 C 204.976 7.327 218.504 20.856 218.504 37.496 L 218.504 218.504 C 218.504 235.144 204.976 248.673 188.336 248.673 L 67.664 248.673 C 51.024 248.673 37.496 235.144 37.496 218.504 L 37.496 37.496 Z  M 78.977 56.351 C 78.977 52.203 82.371 48.809 86.519 48.809 L 109.145 48.809 C 113.293 48.809 116.687 52.203 116.687 56.351 L 116.687 78.977 C 116.687 83.125 113.293 86.519 109.145 86.519 L 86.519 86.519 C 82.371 86.519 78.977 83.125 78.977 78.977 L 78.977 56.351 Z  M 146.855 48.809 L 169.481 48.809 C 173.629 48.809 177.023 52.203 177.023 56.351 L 177.023 78.977 C 177.023 83.125 173.629 86.519 169.481 86.519 L 146.855 86.519 C 142.707 86.519 139.313 83.125 139.313 78.977 L 139.313 56.351 C 139.313 52.203 142.707 48.809 146.855 48.809 Z  M 78.977 116.687 C 78.977 112.539 82.371 109.145 86.519 109.145 L 109.145 109.145 C 113.293 109.145 116.687 112.539 116.687 116.687 L 116.687 139.313 C 116.687 143.461 113.293 146.855 109.145 146.855 L 86.519 146.855 C 82.371 146.855 78.977 143.461 78.977 139.313 L 78.977 116.687 Z  M 146.855 109.145 L 169.481 109.145 C 173.629 109.145 177.023 112.539 177.023 116.687 L 177.023 139.313 C 177.023 143.461 173.629 146.855 169.481 146.855 L 146.855 146.855 C 142.707 146.855 139.313 143.461 139.313 139.313 L 139.313 116.687 C 139.313 112.539 142.707 109.145 146.855 109.145 Z " fill="rgb(98,216,78)"/>
</svg>