<?xml version="1.0" encoding="UTF-8" standalone="no"?>
<svg xmlns="http://www.w3.org/2000/svg" viewBox="0 0 256 256" width="256pt" height="256pt">
<path d=" M 226.105 60.553 L 189.316 60.553 L 189.316 36.026 C 189.316 22.5 178.316 11.5 164.789 11.5 L 91.211 11.5 C 77.684 11.5 66.684 22.5 66.684 36.026 L 66.684 60.553 L 29.895 60.553 C 16.368 60.553 5.368 71.553 5.368 85.079 L 5.368 219.974 C 5.368 233.5 16.368 244.5 29.895 244.5 L 226.105 244.5 C 239.632 244.5 250.632 233.5 250.632 219.974 L 250.632 85.079 C 250.632 71.553 239.632 60.553 226.105 60.553 Z  M 164.789 36.026 L 164.789 60.553 L 91.211 60.553 L 91.211 36.026 L 164.789 36.026 Z  M 78.947 85.079 L 226.105 85.079 L 226.105 121.868 L 29.895 121.868 L 29.895 85.079 L 78.947 85.079 Z  M 29.895 219.974 L 29.895 146.395 L 103.474 146.395 L 103.474 170.921 L 152.526 170.921 L 152.526 146.395 L 226.105 146.395 L 226.118 219.974 L 29.895 219.974 Z " fill="rgb(98,216,78)"/>
</svg>