<?xml version="1.0" encoding="UTF-8" standalone="no"?>
<svg xmlns="http://www.w3.org/2000/svg" viewBox="0 0 256 256" width="256pt" height="256pt">
<path d=" M 226.396 199.447 C 221.039 186.759 213.266 175.233 203.508 165.513 C 193.78 155.764 182.256 147.992 169.573 142.625 C 169.46 142.568 169.346 142.539 169.233 142.483 C 186.924 129.704 198.425 108.889 198.425 85.404 C 198.425 46.5 166.904 14.979 128 14.979 C 89.096 14.979 57.575 46.5 57.575 85.404 C 57.575 108.889 69.076 129.704 86.767 142.511 C 86.654 142.568 86.54 142.596 86.427 142.653 C 73.705 148.02 62.289 155.716 52.492 165.541 C 42.743 175.269 34.971 186.793 29.604 199.476 C 24.331 211.892 21.487 225.205 21.227 238.692 C 21.211 239.304 21.444 239.897 21.872 240.335 C 22.299 240.774 22.886 241.021 23.498 241.021 L 40.537 241.021 C 41.786 241.021 42.78 240.027 42.808 238.806 C 43.376 216.883 52.18 196.352 67.741 180.79 C 83.842 164.689 105.225 155.829 128 155.829 C 150.775 155.829 172.158 164.689 188.259 180.79 C 203.82 196.352 212.624 216.883 213.192 238.806 C 213.22 240.055 214.214 241.021 215.463 241.021 L 232.502 241.021 C 233.114 241.021 233.701 240.774 234.128 240.335 C 234.556 239.897 234.789 239.304 234.773 238.692 C 234.489 225.118 231.678 211.914 226.396 199.447 L 226.396 199.447 Z  M 128 134.247 C 114.966 134.247 102.698 129.164 93.469 119.935 C 84.24 110.706 79.157 98.439 79.157 85.404 C 79.157 72.37 84.24 60.102 93.469 50.873 C 102.698 41.644 114.966 36.561 128 36.561 C 141.034 36.561 153.302 41.644 162.531 50.873 C 171.76 60.102 176.843 72.37 176.843 85.404 C 176.843 98.439 171.76 110.706 162.531 119.935 C 153.302 129.164 141.034 134.247 128 134.247 Z " fill="rgb(98,216,78)"/>
</svg>