<?xml version="1.0" encoding="UTF-8" standalone="no"?>
<svg xmlns="http://www.w3.org/2000/svg" viewBox="0 0 256 256" width="256pt" height="256pt">
<path d=" M 48.2 242 L 207.8 242 C 220.374 242 230.6 231.774 230.6 219.2 L 230.6 48.2 C 230.6 35.626 220.374 25.4 207.8 25.4 L 185 25.4 C 185 19.104 179.896 14 173.6 14 L 82.4 14 C 76.104 14 71 19.104 71 25.4 L 48.2 25.4 C 35.626 25.4 25.4 35.626 25.4 48.2 L 25.4 219.2 C 25.4 231.774 35.626 242 48.2 242 Z  M 48.2 48.2 L 71 48.2 L 71 71 L 185 71 L 185 48.2 L 207.8 48.2 L 207.8 219.2 L 48.2 219.2 L 48.2 48.2 Z " fill="rgb(98,216,78)"/>
<path d=" M 116.6 146.08 L 96.16 125.64 L 80.04 141.76 L 116.6 178.32 L 175.96 118.96 L 159.84 102.84 L 116.6 146.08 Z " fill="rgb(98,216,78)"/>
</svg>