<svg width="14" height="14" viewBox="0 0 14 14" fill="none" xmlns="http://www.w3.org/2000/svg">
<path fill-rule="evenodd" clip-rule="evenodd" d="M3.79997 0.100098C4.07611 0.100098 4.29997 0.323955 4.29997 0.600098V1.2001H9.69997V0.600098C9.69997 0.323955 9.92383 0.100098 10.2 0.100098C10.4761 0.100098 10.7 0.323955 10.7 0.600098V1.2001H12.3666C13.1951 1.2001 13.8666 1.87167 13.8666 2.7001V12.3668C13.8666 13.1952 13.1951 13.8668 12.3666 13.8668H1.6333C0.804873 13.8668 0.133301 13.1952 0.133301 12.3668V2.7001C0.133301 1.87167 0.804872 1.2001 1.6333 1.2001H3.29997V0.600098C3.29997 0.323955 3.52383 0.100098 3.79997 0.100098ZM9.69997 2.2001V2.73343C9.69997 3.00957 9.92383 3.23343 10.2 3.23343C10.4761 3.23343 10.7 3.00957 10.7 2.73343V2.2001H12.3666C12.6428 2.2001 12.8666 2.42396 12.8666 2.7001V4.4001H1.1333V2.7001C1.1333 2.42396 1.35716 2.2001 1.6333 2.2001H3.29997V2.73343C3.29997 3.00957 3.52383 3.23343 3.79997 3.23343C4.07611 3.23343 4.29997 3.00957 4.29997 2.73343V2.2001H9.69997ZM1.1333 5.4001V12.3668C1.1333 12.6429 1.35716 12.8668 1.6333 12.8668H12.3666C12.6428 12.8668 12.8666 12.6429 12.8666 12.3668V5.4001H1.1333ZM6.46663 6.96676C6.46663 6.69062 6.69049 6.46676 6.96663 6.46676H7.0333C7.30944 6.46676 7.5333 6.69062 7.5333 6.96676V7.03343C7.5333 7.30957 7.30944 7.53343 7.0333 7.53343H6.96663C6.69049 7.53343 6.46663 7.30957 6.46663 7.03343V6.96676ZM9.09997 6.46676C8.82383 6.46676 8.59997 6.69062 8.59997 6.96676V7.03343C8.59997 7.30957 8.82383 7.53343 9.09997 7.53343H9.16663C9.44278 7.53343 9.66663 7.30957 9.66663 7.03343V6.96676C9.66663 6.69062 9.44278 6.46676 9.16663 6.46676H9.09997ZM10.7333 6.96676C10.7333 6.69062 10.9572 6.46676 11.2333 6.46676H11.3C11.5761 6.46676 11.8 6.69062 11.8 6.96676V7.03343C11.8 7.30957 11.5761 7.53343 11.3 7.53343H11.2333C10.9572 7.53343 10.7333 7.30957 10.7333 7.03343V6.96676ZM11.2333 8.6001C10.9572 8.6001 10.7333 8.82396 10.7333 9.1001V9.16676C10.7333 9.44291 10.9572 9.66676 11.2333 9.66676H11.3C11.5761 9.66676 11.8 9.44291 11.8 9.16676V9.1001C11.8 8.82396 11.5761 8.6001 11.3 8.6001H11.2333ZM8.59997 9.1001C8.59997 8.82396 8.82383 8.6001 9.09997 8.6001H9.16663C9.44278 8.6001 9.66663 8.82396 9.66663 9.1001V9.16676C9.66663 9.44291 9.44278 9.66676 9.16663 9.66676H9.09997C8.82383 9.66676 8.59997 9.44291 8.59997 9.16676V9.1001ZM6.96663 8.6001C6.69049 8.6001 6.46663 8.82396 6.46663 9.1001V9.16676C6.46663 9.44291 6.69049 9.66676 6.96663 9.66676H7.0333C7.30944 9.66676 7.5333 9.44291 7.5333 9.16676V9.1001C7.5333 8.82396 7.30944 8.6001 7.0333 8.6001H6.96663ZM4.3333 9.1001C4.3333 8.82396 4.55716 8.6001 4.8333 8.6001H4.89997C5.17611 8.6001 5.39997 8.82396 5.39997 9.1001V9.16676C5.39997 9.44291 5.17611 9.66676 4.89997 9.66676H4.8333C4.55716 9.66676 4.3333 9.44291 4.3333 9.16676V9.1001ZM2.69997 8.6001C2.42383 8.6001 2.19997 8.82396 2.19997 9.1001V9.16676C2.19997 9.44291 2.42382 9.66676 2.69997 9.66676H2.76663C3.04278 9.66676 3.26663 9.44291 3.26663 9.16676V9.1001C3.26663 8.82396 3.04278 8.6001 2.76663 8.6001H2.69997ZM2.19997 11.2334C2.19997 10.9573 2.42383 10.7334 2.69997 10.7334H2.76663C3.04278 10.7334 3.26663 10.9573 3.26663 11.2334V11.3001C3.26663 11.5762 3.04278 11.8001 2.76663 11.8001H2.69997C2.42382 11.8001 2.19997 11.5762 2.19997 11.3001V11.2334ZM4.8333 10.7334C4.55716 10.7334 4.3333 10.9573 4.3333 11.2334V11.3001C4.3333 11.5762 4.55716 11.8001 4.8333 11.8001H4.89997C5.17611 11.8001 5.39997 11.5762 5.39997 11.3001V11.2334C5.39997 10.9573 5.17611 10.7334 4.89997 10.7334H4.8333ZM6.46663 11.2334C6.46663 10.9573 6.69049 10.7334 6.96663 10.7334H7.0333C7.30944 10.7334 7.5333 10.9573 7.5333 11.2334V11.3001C7.5333 11.5762 7.30944 11.8001 7.0333 11.8001H6.96663C6.69049 11.8001 6.46663 11.5762 6.46663 11.3001V11.2334ZM9.09997 10.7334C8.82383 10.7334 8.59997 10.9573 8.59997 11.2334V11.3001C8.59997 11.5762 8.82383 11.8001 9.09997 11.8001H9.16663C9.44278 11.8001 9.66663 11.5762 9.66663 11.3001V11.2334C9.66663 10.9573 9.44278 10.7334 9.16663 10.7334H9.09997Z" fill="white"/>
</svg>
