<?xml version="1.0" encoding="UTF-8" standalone="no"?><svg xmlns="http://www.w3.org/2000/svg" xmlns:xlink="http://www.w3.org/1999/xlink" style="isolation:isolate" viewBox="0 0 256 256" width="256pt" height="256pt"><defs><clipPath id="_clipPath_pnCxvYvl5XpE7yNAhUJxGO6eCNh64tYL"><rect width="256" height="256"/></clipPath></defs><g clip-path="url(#_clipPath_pnCxvYvl5XpE7yNAhUJxGO6eCNh64tYL)"><path d=" M 42.848 182.854 C 46.21 186.229 47.894 190.927 47.44 195.67 C 46.316 206.511 44.184 217.224 41.072 227.67 C 63.392 222.502 77.024 216.518 83.216 213.382 C 86.728 211.603 90.773 211.181 94.576 212.198 C 105.479 215.104 116.716 216.568 128 216.55 C 191.936 216.55 240 171.638 240 120.55 C 240 69.478 191.936 24.55 128 24.55 C 64.064 24.55 16 69.478 16 120.55 C 16 144.038 25.872 165.83 42.848 182.854 Z  M 34.96 245.334 C 31.169 246.085 27.366 246.773 23.552 247.398 C 20.352 247.91 17.92 244.582 19.184 241.606 C 20.605 238.255 21.907 234.856 23.088 231.414 L 23.136 231.254 C 27.104 219.734 30.336 206.486 31.52 194.15 C 11.888 174.47 0 148.71 0 120.55 C 0 58.694 57.312 8.55 128 8.55 C 198.688 8.55 256 58.694 256 120.55 C 256 182.406 198.688 232.55 128 232.55 C 115.322 232.567 102.697 230.921 90.448 227.654 C 82.128 231.862 64.224 239.526 34.96 245.334 Z " fill="rgb(0,0,0)"/><path d=" M 64 80.55 C 64 76.131 67.582 72.55 72 72.55 L 184 72.55 C 188.418 72.55 192 76.131 192 80.55 C 192 84.968 188.418 88.55 184 88.55 L 72 88.55 C 67.582 88.55 64 84.968 64 80.55 Z  M 64 120.55 C 64 116.131 67.582 112.55 72 112.55 L 184 112.55 C 188.418 112.55 192 116.131 192 120.55 C 192 124.968 188.418 128.55 184 128.55 L 72 128.55 C 67.582 128.55 64 124.968 64 120.55 Z  M 64 160.55 C 64 156.131 67.582 152.55 72 152.55 L 136 152.55 C 140.418 152.55 144 156.131 144 160.55 C 144 164.968 140.418 168.55 136 168.55 L 72 168.55 C 67.582 168.55 64 164.968 64 160.55 Z " fill="rgb(0,0,0)"/></g></svg>