<svg width="12" height="14" viewBox="0 0 12 14" fill="none" xmlns="http://www.w3.org/2000/svg">
<path fill-rule="evenodd" clip-rule="evenodd" d="M2.17064 5.30016C1.61607 5.30016 1.1665 5.74973 1.1665 6.3043L1.1665 11.8294C1.1665 12.3839 1.61607 12.8335 2.17064 12.8335L9.82904 12.8335C10.3836 12.8335 10.8332 12.3839 10.8332 11.8294L10.8332 6.3043C10.8332 5.74973 10.3836 5.30016 9.82904 5.30016L8.93317 5.30016C8.65703 5.30016 8.43317 5.07631 8.43317 4.80016C8.43317 4.52402 8.65703 4.30016 8.93317 4.30016L9.82904 4.30016C10.9359 4.30016 11.8332 5.19744 11.8332 6.3043L11.8332 11.8294C11.8332 12.9362 10.9359 13.8335 9.82904 13.8335L2.17064 13.8335C1.06379 13.8335 0.166504 12.9362 0.166504 11.8294L0.166504 6.3043C0.166504 5.19745 1.06378 4.30016 2.17064 4.30016L3.0665 4.30016C3.34265 4.30016 3.5665 4.52402 3.5665 4.80016C3.5665 5.07631 3.34265 5.30016 3.0665 5.30016L2.17064 5.30016ZM5.49976 1.74061L3.95341 3.28696C3.75815 3.48222 3.44156 3.48222 3.2463 3.28696C3.05104 3.09169 3.05104 2.77511 3.2463 2.57985L5.6463 0.179849C5.74007 0.0860803 5.86725 0.0334022 5.99985 0.0334022C6.13246 0.0334022 6.25964 0.0860803 6.35341 0.179849L8.75341 2.57985C8.94867 2.77511 8.94867 3.09169 8.75341 3.28696C8.55815 3.48222 8.24156 3.48222 8.0463 3.28696L6.49976 1.74041L6.49976 9.06676C6.49976 9.3429 6.2759 9.56676 5.99976 9.56676C5.72361 9.56676 5.49976 9.3429 5.49976 9.06676L5.49976 1.74061Z" fill="white"/>
</svg>
