<?xml version="1.0" encoding="UTF-8" standalone="no"?><svg xmlns="http://www.w3.org/2000/svg" xmlns:xlink="http://www.w3.org/1999/xlink" style="isolation:isolate" viewBox="0 0 256 256" width="256pt" height="256pt"><defs><clipPath id="_clipPath_zPlE7cQOnKW0zq1mfPOcGYsaHAXPZBFd"><rect width="256" height="256"/></clipPath></defs><g clip-path="url(#_clipPath_zPlE7cQOnKW0zq1mfPOcGYsaHAXPZBFd)"><path d=" M 56.966 97.701 C 46.678 97.701 38.338 106.041 38.338 116.329 L 38.338 218.823 C 38.338 229.109 46.678 237.449 56.966 237.449 L 199.034 237.449 C 209.321 237.449 217.661 229.109 217.661 218.823 L 217.661 116.329 C 217.661 106.041 209.321 97.701 199.034 97.701 L 182.415 97.701 C 177.292 97.701 173.139 93.549 173.139 88.426 C 173.139 83.304 177.292 79.151 182.415 79.151 L 199.034 79.151 C 219.567 79.151 236.212 95.796 236.212 116.329 L 236.212 218.823 C 236.212 239.355 219.567 256 199.034 256 L 56.966 256 C 36.433 256 19.788 239.355 19.788 218.823 L 19.788 116.329 C 19.788 95.796 36.433 79.151 56.966 79.151 L 73.585 79.151 C 78.707 79.151 82.86 83.304 82.86 88.426 C 82.86 93.549 78.707 97.701 73.585 97.701 L 56.966 97.701 Z  M 118.723 31.67 L 90.037 60.355 C 86.415 63.978 80.542 63.978 76.92 60.355 C 73.298 56.733 73.298 50.86 76.92 47.238 L 121.441 2.717 C 123.181 0.977 125.54 0 128 0 C 130.46 0 132.819 0.977 134.559 2.717 L 179.08 47.238 C 182.702 50.86 182.702 56.733 179.08 60.355 C 175.458 63.978 169.585 63.978 165.963 60.355 L 137.274 31.666 L 137.274 167.574 C 137.274 172.697 133.121 176.849 127.998 176.849 C 122.876 176.849 118.723 172.697 118.723 167.574 L 118.723 31.67 Z " fill-rule="evenodd" fill="rgb(0,0,0)"/></g></svg>