<svg xmlns="http://www.w3.org/2000/svg" width="32" height="32" viewBox="0 0 32 32" fill="none">
<path d="M13.5036 1.55664C13.5232 1.54262 13.5428 1.5287 13.5626 1.51489C13.4214 1.57767 13.2821 1.64616 13.145 1.72036L5.14496 6.04849C3.20732 7.09679 2 9.12264 2 11.3257V20.6739C2 22.8771 3.20754 24.9031 5.14545 25.9513L7.08424 27H9L17.0011 22.5549L14.1058 20.9606C12.19 19.9056 11 17.8918 11 15.7048L11 12.8634C11.3135 12.2511 11.9524 11.0214 12 11C12.0476 10.9786 14.6865 10.3244 16 10V1.55664H13.5036Z" fill="url(#paint0_radial_2996_8828)"/>
<path d="M13.5036 1.55664C13.5232 1.54262 13.5428 1.5287 13.5626 1.51489C13.4214 1.57767 13.2821 1.64616 13.145 1.72036L5.14496 6.04849C3.20732 7.09679 2 9.12264 2 11.3257V20.6739C2 22.8771 3.20754 24.9031 5.14545 25.9513L7.08424 27H9L17.0011 22.5549L14.1058 20.9606C12.19 19.9056 11 17.8918 11 15.7048L11 12.8634C11.3135 12.2511 11.9524 11.0214 12 11C12.0476 10.9786 14.6865 10.3244 16 10V1.55664H13.5036Z" fill="url(#paint1_linear_2996_8828)"/>
<path d="M20.9999 11.7144V15.8079C20.9999 18.0111 19.7924 20.0371 17.8545 21.0853L9.8545 25.4125C8.24387 26.2837 6.33414 26.3671 4.66626 25.6626C4.82047 25.7657 4.98028 25.8621 5.14539 25.9514L13.1454 30.2785C14.9265 31.2419 17.0734 31.2419 18.8545 30.2785L26.8545 25.9514C28.7924 24.9032 29.9999 22.8772 29.9999 20.6739V18.1429L23.9999 13.0001L20.9999 11.7144Z" fill="url(#paint2_radial_2996_8828)"/>
<path d="M20.9999 11.7144V15.8079C20.9999 18.0111 19.7924 20.0371 17.8545 21.0853L9.8545 25.4125C8.24387 26.2837 6.33414 26.3671 4.66626 25.6626C4.82047 25.7657 4.98028 25.8621 5.14539 25.9514L13.1454 30.2785C14.9265 31.2419 17.0734 31.2419 18.8545 30.2785L26.8545 25.9514C28.7924 24.9032 29.9999 22.8772 29.9999 20.6739V18.1429L23.9999 13.0001L20.9999 11.7144Z" fill="url(#paint3_linear_2996_8828)"/>
<path d="M26.855 6.0485L18.855 1.72037C17.2108 0.830824 15.2548 0.762335 13.5626 1.5149C11.9677 2.62928 11 4.4606 11 6.43276V12.7023L13.294 11.5431C14.9956 10.6833 17.0044 10.6833 18.706 11.5431L26.706 15.5855C28.6864 16.5862 29.9496 18.5961 29.9985 20.8072C29.9995 20.7629 30 20.7184 30 20.6739V11.3257C30 9.12265 28.7927 7.09679 26.855 6.0485Z" fill="url(#paint4_radial_2996_8828)"/>
<path d="M26.855 6.0485L18.855 1.72037C17.2108 0.830824 15.2548 0.762335 13.5626 1.5149C11.9677 2.62928 11 4.4606 11 6.43276V12.7023L13.294 11.5431C14.9956 10.6833 17.0044 10.6833 18.706 11.5431L26.706 15.5855C28.6864 16.5862 29.9496 18.5961 29.9985 20.8072C29.9995 20.7629 30 20.7184 30 20.6739V11.3257C30 9.12265 28.7927 7.09679 26.855 6.0485Z" fill="url(#paint5_linear_2996_8828)"/>
<defs>
<radialGradient id="paint0_radial_2996_8828" cx="0" cy="0" r="1" gradientUnits="userSpaceOnUse" gradientTransform="translate(14.316 7.42295) rotate(112.787) scale(29.3949 36.8157)">
<stop offset="0.0598494" stop-color="#AE7FE2"/>
<stop offset="1" stop-color="#0078D4"/>
</radialGradient>
<linearGradient id="paint1_linear_2996_8828" x1="13.2917" y1="24.5789" x2="11.0955" y2="19.3382" gradientUnits="userSpaceOnUse">
<stop stop-color="#114A8B"/>
<stop offset="1" stop-color="#0078D4" stop-opacity="0"/>
</linearGradient>
<radialGradient id="paint2_radial_2996_8828" cx="0" cy="0" r="1" gradientUnits="userSpaceOnUse" gradientTransform="translate(8.57931 25.0399) rotate(-18.7226) scale(20.2985 15.5984)">
<stop offset="0.110651" stop-color="#D59DFF"/>
<stop offset="1" stop-color="#5E438F"/>
</radialGradient>
<linearGradient id="paint3_linear_2996_8828" x1="27.4264" y1="16.2694" x2="23.7685" y2="21.4561" gradientUnits="userSpaceOnUse">
<stop stop-color="#493474"/>
<stop offset="1" stop-color="#8C66BA" stop-opacity="0"/>
</linearGradient>
<radialGradient id="paint4_radial_2996_8828" cx="0" cy="0" r="1" gradientUnits="userSpaceOnUse" gradientTransform="translate(30.5885 16.39) rotate(-160.555) scale(24.4188 24.2273)">
<stop offset="0.0960063" stop-color="#50E6FF"/>
<stop offset="1" stop-color="#436DCD"/>
</radialGradient>
<linearGradient id="paint5_linear_2996_8828" x1="11" y1="1.71803" x2="15.9242" y2="1.71803" gradientUnits="userSpaceOnUse">
<stop stop-color="#2D3F80"/>
<stop offset="1" stop-color="#436DCD" stop-opacity="0"/>
</linearGradient>
</defs>
</svg>