<?xml version="1.0" encoding="UTF-8" standalone="no"?><svg xmlns="http://www.w3.org/2000/svg" xmlns:xlink="http://www.w3.org/1999/xlink" style="isolation:isolate" viewBox="0 0 256 256" width="256pt" height="256pt"><defs><clipPath id="_clipPath_qbX71bxdTvjrlzjzaXIt9jiW0BAUw3wQ"><rect width="256" height="256"/></clipPath></defs><g clip-path="url(#_clipPath_qbX71bxdTvjrlzjzaXIt9jiW0BAUw3wQ)"><path d=" M 0.011 174.542 L 93.094 174.542 L 93.094 255.99 L 11.646 255.99 C 5.22 255.99 0.011 250.78 0.011 244.354 L 0.011 174.542 Z " fill="rgb(6,74,140)"/><path d=" M 255.99 58.188 L 0.011 58.188 L 0.011 13.31 C -0.272 6.278 5.175 0.337 12.204 0.01 L 243.749 0.01 C 250.797 0.313 256.272 6.261 255.99 13.31 L 255.99 58.188 Z " fill="rgb(3,100,184)"/><rect x="0.011" y="104.729" width="93.083" height="81.448" transform="matrix(1,0,0,1,0,0)" fill="rgb(3,100,184)"/><rect x="81.458" y="174.542" width="104.719" height="81.448" transform="matrix(1,0,0,1,0,0)" fill="rgb(3,100,184)"/><path d=" M 174.542 174.542 L 255.99 174.542 L 255.99 244.354 C 255.99 250.78 250.78 255.99 244.354 255.99 L 174.542 255.99 L 174.542 174.542 Z " fill="rgb(0,120,212)"/><rect x="0.011" y="46.552" width="93.083" height="69.812" transform="matrix(1,0,0,1,0,0)" fill="rgb(0,120,212)"/><rect x="81.458" y="104.729" width="104.719" height="81.448" transform="matrix(1,0,0,1,0,0)" fill="rgb(0,120,212)"/><rect x="81.458" y="46.552" width="93.083" height="69.812" transform="matrix(1,0,0,1,0,0)" fill="rgb(40,168,234)"/><rect x="174.542" y="46.552" width="81.448" height="81.448" transform="matrix(1,0,0,1,0,0)" fill="rgb(80,217,255)"/><rect x="174.542" y="116.365" width="81.448" height="69.812" transform="matrix(1,0,0,1,0,0)" fill="rgb(40,168,234)"/></g></svg>