<svg xmlns="http://www.w3.org/2000/svg" viewBox="0 0 24 24"><defs><style>.cls-1{opacity:0.1;}.cls-2{fill:none;}.cls-3{fill:#5059c9;}.cls-4{fill:#7b83eb;}.cls-5{opacity:0.5;}.cls-6{fill:#4b53bc;}.cls-7{fill:#fff;}</style></defs><title>Teams_24x</title><g id="Teams"><path class="cls-1" d="M8,10.12V17.5A5.4,5.4,0,0,0,8.61,20h5A1.5,1.5,0,0,0,15,18.65V9l-.28,0H9.12A1.12,1.12,0,0,0,8,10.12Z"/><path class="cls-1" d="M13.83,6h-3A3.29,3.29,0,0,0,14,8.31a3.33,3.33,0,0,0,1-.17v-1A1.18,1.18,0,0,0,13.83,6Z"/><rect class="cls-2" width="24" height="24"/><path class="cls-3" d="M22.87,9h-5l-1.39,1.13v5.59a3.76,3.76,0,0,0,7.51,0V10.13A1.12,1.12,0,0,0,22.87,9Z"/><circle id="Head" class="cls-3" cx="20.5" cy="5.5" r="2.5"/><path class="cls-4" d="M9.12,9h8.76A1.12,1.12,0,0,1,19,10.12V17.5A5.5,5.5,0,0,1,13.5,23h0A5.5,5.5,0,0,1,8,17.5V10.12A1.12,1.12,0,0,1,9.12,9Z"/><circle id="Head-2" data-name="Head" class="cls-4" cx="14" cy="5" r="3.31"/><path class="cls-5" d="M8,10.12V17.5A5.4,5.4,0,0,0,8.61,20h5A1.5,1.5,0,0,0,15,18.65V9l-.28,0H9.12A1.12,1.12,0,0,0,8,10.12Z"/><path class="cls-5" d="M13.83,6h-3A3.29,3.29,0,0,0,14,8.31a3.33,3.33,0,0,0,1-.17v-1A1.18,1.18,0,0,0,13.83,6Z"/><rect id="Back_Plate" data-name="Back Plate" class="cls-6" y="5" width="14" height="14" rx="1.17"/><path class="cls-7" d="M10.18,9.58H7.79V16H6.22V9.58H3.82V8h6.36Z"/></g></svg>