<?xml version="1.0" encoding="UTF-8" standalone="no"?><svg xmlns="http://www.w3.org/2000/svg" xmlns:xlink="http://www.w3.org/1999/xlink" style="isolation:isolate" viewBox="0 0 256 256" width="256pt" height="256pt"><defs><clipPath id="_clipPath_VVhsLs2TBKNLgBhecM3W4ucYMdZadzVz"><rect width="256" height="256"/></clipPath></defs><g clip-path="url(#_clipPath_VVhsLs2TBKNLgBhecM3W4ucYMdZadzVz)"><rect x="0" y="0" width="256" height="256" transform="matrix(1,0,0,1,0,0)" fill="none"/><path d=" M 256 74.667 L 256 21.333 C 256 15.442 251.224 10.667 245.333 10.667 L 74.667 10.667 C 68.776 10.667 64 15.442 64 21.333 L 64 74.667 L 160 96 L 256 74.667 Z " fill="rgb(65,165,238)"/><path d=" M 256 74.667 L 64 74.667 L 64 128 L 165.333 149.333 L 256 128 L 256 74.667 L 256 74.667 Z " fill="rgb(43,124,211)"/><path d=" M 256 128 L 64 128 L 64 181.333 L 160 197.333 L 256 181.333 L 256 128 L 256 128 Z " fill="rgb(24,90,189)"/><path d=" M 64 181.333 L 256 181.333 L 256 234.667 C 256 240.558 251.224 245.333 245.333 245.333 L 74.667 245.333 C 68.776 245.333 64 240.558 64 234.667 L 64 181.333 Z " fill="rgb(16,63,145)"/><g opacity="0.5"><path d=" M 147.52 64 L 64 64 L 64 213.333 L 145.067 213.333 C 152.903 212.848 159.23 206.747 160 198.933 L 160 76.48 C 159.942 69.612 154.388 64.058 147.52 64 L 147.52 64 Z " fill="rgb(0,0,0)"/></g><path d="M 12.48 53.33 L 136.85 53.33 C 143.738 53.33 149.33 58.922 149.33 65.811 L 149.33 190.189 C 149.33 197.078 143.738 202.67 136.85 202.67 L 12.48 202.67 C 5.592 202.67 0 197.078 0 190.189 L 0 65.811 C 0 58.922 5.592 53.33 12.48 53.33 Z" style="stroke:none;fill:#185ABD;stroke-miterlimit:10;"/><path d=" M 108.373 170.667 L 93.013 170.667 L 74.667 111.787 L 56.32 170.667 L 40.96 170.667 L 23.893 85.333 L 39.253 85.333 L 51.2 145.067 L 69.12 87.04 L 81.92 87.04 L 98.987 145.067 L 110.933 85.333 L 125.44 85.333 L 108.373 170.667 Z " fill="rgb(255,255,255)"/></g></svg>