<?xml version="1.0" encoding="UTF-8" standalone="no"?>

<svg
   style="isolation:isolate"
   viewBox="0 0 990 530"
   width="990pt"
   height="530pt"
   version="1.1"
   id="svg305"
   sodipodi:docname="customize-workspace.svg"
   inkscape:version="1.2.1 (9c6d41e410, 2022-07-14)"
   inkscape:export-filename="customize-workspace.png"
   inkscape:export-xdpi="96"
   inkscape:export-ydpi="96"
   xmlns:inkscape="http://www.inkscape.org/namespaces/inkscape"
   xmlns:sodipodi="http://sodipodi.sourceforge.net/DTD/sodipodi-0.dtd"
   xmlns="http://www.w3.org/2000/svg"
   xmlns:svg="http://www.w3.org/2000/svg">
  <sodipodi:namedview
     id="namedview307"
     pagecolor="#ffffff"
     bordercolor="#000000"
     borderopacity="0.25"
     inkscape:showpageshadow="2"
     inkscape:pageopacity="0.0"
     inkscape:pagecheckerboard="0"
     inkscape:deskcolor="#d1d1d1"
     inkscape:document-units="pt"
     showgrid="false"
     inkscape:zoom="1.27"
     inkscape:cx="586.22047"
     inkscape:cy="353.54331"
     inkscape:window-width="2194"
     inkscape:window-height="1163"
     inkscape:window-x="-8"
     inkscape:window-y="-8"
     inkscape:window-maximized="1"
     inkscape:current-layer="svg305" />
  <defs
     id="defs12">
    <defs
       id="defs105" />
    <defs
       id="defs114" />
    <defs
       id="defs123" />
    <defs
       id="defs132" />
    <defs
       id="defs141" />
    <defs
       id="defs150" />
    <defs
       id="defs159" />
    <defs
       id="defs168" />
    <defs
       id="defs181" />
    <defs
       id="defs194" />
    <defs
       id="defs203" />
    <defs
       id="defs214" />
    <defs
       id="defs223" />
    <defs
       id="defs232" />
    <defs
       id="defs241" />
    <defs
       id="defs250" />
    <defs
       id="defs259" />
    <defs
       id="defs274" />
    <defs
       id="defs283" />
    <defs
       id="defs292" />
    <defs
       id="defs301" />
    <clipPath
       clipPathUnits="userSpaceOnUse"
       id="clipPath572">
      <g
         id="g576">
        <rect
           width="990"
           height="530"
           id="rect574"
           x="0"
           y="0" />
      </g>
    </clipPath>
    <clipPath
       clipPathUnits="userSpaceOnUse"
       id="clipPath578">
      <g
         id="g582">
        <rect
           width="990"
           height="530"
           id="rect580"
           x="0"
           y="0" />
      </g>
    </clipPath>
    <clipPath
       clipPathUnits="userSpaceOnUse"
       id="clipPath584">
      <g
         id="g588">
        <rect
           width="990"
           height="530"
           id="rect586"
           x="0"
           y="0" />
      </g>
    </clipPath>
    <clipPath
       clipPathUnits="userSpaceOnUse"
       id="clipPath590">
      <g
         id="g594">
        <rect
           width="990"
           height="530"
           id="rect592"
           x="0"
           y="0" />
      </g>
    </clipPath>
    <clipPath
       clipPathUnits="userSpaceOnUse"
       id="clipPath596">
      <g
         id="g600">
        <rect
           width="990"
           height="530"
           id="rect598"
           x="0"
           y="0" />
      </g>
    </clipPath>
    <clipPath
       clipPathUnits="userSpaceOnUse"
       id="clipPath602">
      <g
         id="g606">
        <rect
           width="990"
           height="530"
           id="rect604"
           x="0"
           y="0" />
      </g>
    </clipPath>
    <clipPath
       clipPathUnits="userSpaceOnUse"
       id="clipPath608">
      <g
         id="g612">
        <rect
           width="990"
           height="530"
           id="rect610"
           x="0"
           y="0" />
      </g>
    </clipPath>
    <clipPath
       clipPathUnits="userSpaceOnUse"
       id="clipPath614">
      <g
         id="g618">
        <rect
           width="990"
           height="530"
           id="rect616"
           x="0"
           y="0" />
      </g>
    </clipPath>
    <clipPath
       clipPathUnits="userSpaceOnUse"
       id="clipPath620">
      <g
         id="g624">
        <rect
           width="990"
           height="530"
           id="rect622"
           x="0"
           y="0" />
      </g>
    </clipPath>
    <clipPath
       clipPathUnits="userSpaceOnUse"
       id="clipPath626">
      <g
         id="g630">
        <rect
           width="990"
           height="530"
           id="rect628"
           x="0"
           y="0" />
      </g>
    </clipPath>
    <clipPath
       clipPathUnits="userSpaceOnUse"
       id="clipPath632">
      <g
         id="g636">
        <rect
           width="990"
           height="530"
           id="rect634"
           x="0"
           y="0" />
      </g>
    </clipPath>
    <clipPath
       clipPathUnits="userSpaceOnUse"
       id="clipPath638">
      <g
         id="g642">
        <rect
           width="990"
           height="530"
           id="rect640"
           x="0"
           y="0" />
      </g>
    </clipPath>
    <clipPath
       clipPathUnits="userSpaceOnUse"
       id="clipPath644">
      <g
         id="g648">
        <rect
           width="990"
           height="530"
           id="rect646"
           x="0"
           y="0" />
      </g>
    </clipPath>
    <clipPath
       clipPathUnits="userSpaceOnUse"
       id="clipPath650">
      <g
         id="g654">
        <rect
           width="990"
           height="530"
           id="rect652"
           x="0"
           y="0" />
      </g>
    </clipPath>
    <clipPath
       clipPathUnits="userSpaceOnUse"
       id="clipPath656">
      <g
         id="g660">
        <rect
           width="990"
           height="530"
           id="rect658"
           x="0"
           y="0" />
      </g>
    </clipPath>
    <clipPath
       clipPathUnits="userSpaceOnUse"
       id="clipPath662">
      <g
         id="g666">
        <rect
           width="990"
           height="530"
           id="rect664"
           x="0"
           y="0" />
      </g>
    </clipPath>
    <clipPath
       clipPathUnits="userSpaceOnUse"
       id="clipPath668">
      <g
         id="g672">
        <rect
           width="990"
           height="530"
           id="rect670"
           x="0"
           y="0" />
      </g>
    </clipPath>
    <clipPath
       clipPathUnits="userSpaceOnUse"
       id="clipPath674">
      <g
         id="g678">
        <rect
           width="990"
           height="530"
           id="rect676"
           x="0"
           y="0" />
      </g>
    </clipPath>
    <clipPath
       clipPathUnits="userSpaceOnUse"
       id="clipPath680">
      <g
         id="g684">
        <rect
           width="990"
           height="530"
           id="rect682"
           x="0"
           y="0" />
      </g>
    </clipPath>
    <clipPath
       clipPathUnits="userSpaceOnUse"
       id="clipPath686">
      <g
         id="g690">
        <rect
           width="990"
           height="530"
           id="rect688"
           x="0"
           y="0" />
      </g>
    </clipPath>
    <clipPath
       clipPathUnits="userSpaceOnUse"
       id="clipPath692">
      <g
         id="g696">
        <rect
           width="990"
           height="530"
           id="rect694"
           x="0"
           y="0" />
      </g>
    </clipPath>
    <clipPath
       clipPathUnits="userSpaceOnUse"
       id="clipPath698">
      <g
         id="g702">
        <rect
           width="990"
           height="530"
           id="rect700"
           x="0"
           y="0" />
      </g>
    </clipPath>
    <clipPath
       clipPathUnits="userSpaceOnUse"
       id="clipPath704">
      <g
         id="g708">
        <rect
           width="990"
           height="530"
           id="rect706"
           x="0"
           y="0" />
      </g>
    </clipPath>
    <clipPath
       clipPathUnits="userSpaceOnUse"
       id="clipPath710">
      <g
         id="g714">
        <rect
           width="990"
           height="530"
           id="rect712"
           x="0"
           y="0" />
      </g>
    </clipPath>
    <clipPath
       clipPathUnits="userSpaceOnUse"
       id="clipPath716">
      <g
         id="g720">
        <rect
           width="990"
           height="530"
           id="rect718"
           x="0"
           y="0" />
      </g>
    </clipPath>
    <clipPath
       clipPathUnits="userSpaceOnUse"
       id="clipPath722">
      <g
         id="g726">
        <rect
           width="990"
           height="530"
           id="rect724"
           x="0"
           y="0" />
      </g>
    </clipPath>
    <clipPath
       clipPathUnits="userSpaceOnUse"
       id="clipPath728">
      <g
         id="g732">
        <rect
           width="990"
           height="530"
           id="rect730"
           x="0"
           y="0" />
      </g>
    </clipPath>
    <clipPath
       clipPathUnits="userSpaceOnUse"
       id="clipPath734">
      <g
         id="g738">
        <rect
           width="990"
           height="530"
           id="rect736"
           x="0"
           y="0" />
      </g>
    </clipPath>
    <clipPath
       clipPathUnits="userSpaceOnUse"
       id="clipPath740">
      <g
         id="g744">
        <rect
           width="990"
           height="530"
           id="rect742"
           x="0"
           y="0" />
      </g>
    </clipPath>
    <clipPath
       clipPathUnits="userSpaceOnUse"
       id="clipPath746">
      <g
         id="g750">
        <rect
           width="990"
           height="530"
           id="rect748"
           x="0"
           y="0" />
      </g>
    </clipPath>
    <clipPath
       clipPathUnits="userSpaceOnUse"
       id="clipPath752">
      <g
         id="g756">
        <rect
           width="990"
           height="530"
           id="rect754"
           x="0"
           y="0" />
      </g>
    </clipPath>
    <clipPath
       clipPathUnits="userSpaceOnUse"
       id="clipPath758">
      <g
         id="g762">
        <rect
           width="990"
           height="530"
           id="rect760"
           x="0"
           y="0" />
      </g>
    </clipPath>
    <clipPath
       clipPathUnits="userSpaceOnUse"
       id="clipPath764">
      <g
         id="g768">
        <rect
           width="990"
           height="530"
           id="rect766"
           x="0"
           y="0" />
      </g>
    </clipPath>
    <clipPath
       clipPathUnits="userSpaceOnUse"
       id="clipPath770">
      <g
         id="g774">
        <rect
           width="990"
           height="530"
           id="rect772"
           x="0"
           y="0" />
      </g>
    </clipPath>
    <clipPath
       clipPathUnits="userSpaceOnUse"
       id="clipPath776">
      <g
         id="g780">
        <rect
           width="990"
           height="530"
           id="rect778"
           x="0"
           y="0" />
      </g>
    </clipPath>
    <clipPath
       clipPathUnits="userSpaceOnUse"
       id="clipPath782">
      <g
         id="g786">
        <rect
           width="990"
           height="530"
           id="rect784"
           x="0"
           y="0" />
      </g>
    </clipPath>
    <clipPath
       clipPathUnits="userSpaceOnUse"
       id="clipPath788">
      <g
         id="g792">
        <rect
           width="990"
           height="530"
           id="rect790"
           x="0"
           y="0" />
      </g>
    </clipPath>
    <clipPath
       clipPathUnits="userSpaceOnUse"
       id="clipPath794">
      <g
         id="g798">
        <rect
           width="990"
           height="530"
           id="rect796"
           x="0"
           y="0" />
      </g>
    </clipPath>
    <clipPath
       clipPathUnits="userSpaceOnUse"
       id="clipPath800">
      <g
         id="g804">
        <rect
           width="990"
           height="530"
           id="rect802"
           x="0"
           y="0" />
      </g>
    </clipPath>
    <clipPath
       clipPathUnits="userSpaceOnUse"
       id="clipPath806">
      <g
         id="g810">
        <rect
           width="990"
           height="530"
           id="rect808"
           x="0"
           y="0" />
      </g>
    </clipPath>
    <clipPath
       clipPathUnits="userSpaceOnUse"
       id="clipPath812">
      <g
         id="g816">
        <rect
           width="990"
           height="530"
           id="rect814"
           x="0"
           y="0" />
      </g>
    </clipPath>
    <clipPath
       clipPathUnits="userSpaceOnUse"
       id="clipPath818">
      <g
         id="g822">
        <rect
           width="990"
           height="530"
           id="rect820"
           x="0"
           y="0" />
      </g>
    </clipPath>
  </defs>
  <path
     d="m 20.44,300 h 149.12 c 5.762,0 10.44,4.678 10.44,10.44 v 199.12 c 0,5.762 -4.678,10.44 -10.44,10.44 H 20.44 C 14.678,520 10,515.322 10,509.56 V 310.44 C 10,304.678 14.678,300 20.44,300 Z"
     style="opacity:0.16;fill:#00ffff;stroke:none;stroke-miterlimit:10;stroke-width:0.0003992;stroke-dasharray:none"
     id="path14"
     clip-path="url(#clipPath818)" />
  <path
     d="m 20.44,300 h 149.12 c 5.762,0 10.44,4.678 10.44,10.44 v 199.12 c 0,5.762 -4.678,10.44 -10.44,10.44 H 20.44 C 14.678,520 10,515.322 10,509.56 V 310.44 C 10,304.678 14.678,300 20.44,300 Z"
     style="fill:none;stroke:#000000;stroke-width:0.0015968;stroke-linecap:square;stroke-miterlimit:2;stroke-dasharray:none"
     id="path16"
     clip-path="url(#clipPath812)" />
  <path
     d="m 24.182,350 h 141.636 c 2.308,0 4.182,1.874 4.182,4.182 v 31.636 c 0,2.308 -1.874,4.182 -4.182,4.182 H 24.182 C 21.874,390 20,388.126 20,385.818 V 354.182 C 20,351.874 21.874,350 24.182,350 Z"
     style="opacity:0.16;fill:#00ffff;stroke:none;stroke-miterlimit:10;stroke-width:0.0003992;stroke-dasharray:none"
     id="path18"
     clip-path="url(#clipPath806)" />
  <path
     d="m 24.182,350 h 141.636 c 2.308,0 4.182,1.874 4.182,4.182 v 31.636 c 0,2.308 -1.874,4.182 -4.182,4.182 H 24.182 C 21.874,390 20,388.126 20,385.818 V 354.182 C 20,351.874 21.874,350 24.182,350 Z"
     style="fill:none;stroke:#000000;stroke-width:0.0015968;stroke-linecap:square;stroke-miterlimit:2;stroke-dasharray:none"
     id="path20"
     clip-path="url(#clipPath800)" />
  <path
     d="m 24.182,400 h 141.636 c 2.308,0 4.182,1.874 4.182,4.182 v 31.636 c 0,2.308 -1.874,4.182 -4.182,4.182 H 24.182 C 21.874,440 20,438.126 20,435.818 V 404.182 C 20,401.874 21.874,400 24.182,400 Z"
     style="opacity:0.16;fill:#00ffff;stroke:none;stroke-miterlimit:10;stroke-width:0.0003992;stroke-dasharray:none"
     id="path22"
     clip-path="url(#clipPath794)" />
  <path
     d="m 24.182,400 h 141.636 c 2.308,0 4.182,1.874 4.182,4.182 v 31.636 c 0,2.308 -1.874,4.182 -4.182,4.182 H 24.182 C 21.874,440 20,438.126 20,435.818 V 404.182 C 20,401.874 21.874,400 24.182,400 Z"
     style="fill:none;stroke:#000000;stroke-width:0.0015968;stroke-linecap:square;stroke-miterlimit:2;stroke-dasharray:none"
     id="path24"
     clip-path="url(#clipPath788)" />
  <path
     d="m 24.182,450 h 141.636 c 2.308,0 4.182,1.874 4.182,4.182 v 31.636 c 0,2.308 -1.874,4.182 -4.182,4.182 H 24.182 C 21.874,490 20,488.126 20,485.818 V 454.182 C 20,451.874 21.874,450 24.182,450 Z"
     style="opacity:0.16;fill:#00ffff;stroke:none;stroke-miterlimit:10;stroke-width:0.0003992;stroke-dasharray:none"
     id="path26"
     clip-path="url(#clipPath782)" />
  <path
     d="m 24.182,450 h 141.636 c 2.308,0 4.182,1.874 4.182,4.182 v 31.636 c 0,2.308 -1.874,4.182 -4.182,4.182 H 24.182 C 21.874,490 20,488.126 20,485.818 V 454.182 C 20,451.874 21.874,450 24.182,450 Z"
     style="fill:none;stroke:#000000;stroke-width:0.0015968;stroke-linecap:square;stroke-miterlimit:2;stroke-dasharray:none"
     id="path28"
     clip-path="url(#clipPath776)" />
  <path
     d="m 820.44,300 h 149.12 c 5.762,0 10.44,4.678 10.44,10.44 v 199.12 c 0,5.762 -4.678,10.44 -10.44,10.44 H 820.44 C 814.678,520 810,515.322 810,509.56 V 310.44 c 0,-5.762 4.678,-10.44 10.44,-10.44 z"
     style="opacity:0.15;fill:#9900ff;stroke:none;stroke-miterlimit:10;stroke-width:0.0003992;stroke-dasharray:none"
     id="path30"
     clip-path="url(#clipPath770)" />
  <path
     d="m 820.44,300 h 149.12 c 5.762,0 10.44,4.678 10.44,10.44 v 199.12 c 0,5.762 -4.678,10.44 -10.44,10.44 H 820.44 C 814.678,520 810,515.322 810,509.56 V 310.44 c 0,-5.762 4.678,-10.44 10.44,-10.44 z"
     style="fill:none;stroke:#000000;stroke-width:0.0015968;stroke-linecap:square;stroke-miterlimit:2;stroke-dasharray:none"
     id="path32"
     clip-path="url(#clipPath764)" />
  <path
     d="M 209.776,300 H 780.224 C 791.139,300 800,308.861 800,319.776 V 500.224 C 800,511.139 791.139,520 780.224,520 H 209.776 C 198.861,520 190,511.139 190,500.224 V 319.776 C 190,308.861 198.861,300 209.776,300 Z"
     style="opacity:0.15;fill:#00ff00;stroke:none;stroke-miterlimit:10;stroke-width:0.0003992;stroke-dasharray:none"
     id="path34"
     clip-path="url(#clipPath758)" />
  <path
     d="M 209.776,300 H 780.224 C 791.139,300 800,308.861 800,319.776 V 500.224 C 800,511.139 791.139,520 780.224,520 H 209.776 C 198.861,520 190,511.139 190,500.224 V 319.776 C 190,308.861 198.861,300 209.776,300 Z"
     style="fill:none;stroke:#000000;stroke-width:0.0015968;stroke-linecap:square;stroke-miterlimit:2;stroke-dasharray:none"
     id="path36"
     clip-path="url(#clipPath752)" />
  <path
     d="m 207.888,110 h 574.224 c 9.873,0 17.888,8.015 17.888,17.888 V 272.112 C 800,281.985 791.985,290 782.112,290 H 207.888 C 198.015,290 190,281.985 190,272.112 V 127.888 C 190,118.015 198.015,110 207.888,110 Z"
     style="opacity:0.15;fill:#0000ff;stroke:none;stroke-miterlimit:10;stroke-width:0.0003992;stroke-dasharray:none"
     id="path38"
     clip-path="url(#clipPath746)" />
  <path
     d="m 207.888,110 h 574.224 c 9.873,0 17.888,8.015 17.888,17.888 V 272.112 C 800,281.985 791.985,290 782.112,290 H 207.888 C 198.015,290 190,281.985 190,272.112 V 127.888 C 190,118.015 198.015,110 207.888,110 Z"
     style="fill:none;stroke:#000000;stroke-width:0.0015968;stroke-linecap:square;stroke-miterlimit:2;stroke-dasharray:none"
     id="path40"
     clip-path="url(#clipPath740)" />
  <path
     d="m 198.87,10 h 282.26 c 4.895,0 8.87,3.975 8.87,8.87 v 72.26 c 0,4.895 -3.975,8.87 -8.87,8.87 H 198.87 C 193.975,100 190,96.025 190,91.13 V 18.87 c 0,-4.895 3.975,-8.87 8.87,-8.87 z"
     style="opacity:0.15;fill:#ff9900;stroke:none;stroke-miterlimit:10;stroke-width:0.0003992;stroke-dasharray:none"
     id="path42"
     clip-path="url(#clipPath734)" />
  <path
     d="m 198.87,10 h 282.26 c 4.895,0 8.87,3.975 8.87,8.87 v 72.26 c 0,4.895 -3.975,8.87 -8.87,8.87 H 198.87 C 193.975,100 190,96.025 190,91.13 V 18.87 c 0,-4.895 3.975,-8.87 8.87,-8.87 z"
     style="fill:none;stroke:#000000;stroke-width:0.0015968;stroke-linecap:square;stroke-miterlimit:2;stroke-dasharray:none"
     id="path44"
     clip-path="url(#clipPath728)" />
  <path
     d="m 206.501,160 h 276.998 c 3.588,0 6.501,2.913 6.501,6.501 v 36.998 c 0,3.588 -2.913,6.501 -6.501,6.501 H 206.501 C 202.913,210 200,207.087 200,203.499 v -36.998 c 0,-3.588 2.913,-6.501 6.501,-6.501 z"
     style="opacity:0.15;fill:#0000ff;stroke:none;stroke-miterlimit:10;stroke-width:0.0003992;stroke-dasharray:none"
     id="path46"
     clip-path="url(#clipPath722)" />
  <path
     d="m 206.501,160 h 276.998 c 3.588,0 6.501,2.913 6.501,6.501 v 36.998 c 0,3.588 -2.913,6.501 -6.501,6.501 H 206.501 C 202.913,210 200,207.087 200,203.499 v -36.998 c 0,-3.588 2.913,-6.501 6.501,-6.501 z"
     style="fill:none;stroke:#000000;stroke-width:0.0015968;stroke-linecap:square;stroke-miterlimit:2;stroke-dasharray:none"
     id="path48"
     clip-path="url(#clipPath716)" />
  <path
     d="m 208.293,350 h 573.414 c 4.577,0 8.293,3.716 8.293,8.293 v 23.414 c 0,4.577 -3.716,8.293 -8.293,8.293 H 208.293 C 203.716,390 200,386.284 200,381.707 v -23.414 c 0,-4.577 3.716,-8.293 8.293,-8.293 z"
     style="opacity:0.23;fill:#00ff00;stroke:none;stroke-miterlimit:10;stroke-width:0.0003992;stroke-dasharray:none"
     id="path50"
     clip-path="url(#clipPath710)" />
  <path
     d="m 208.293,350 h 573.414 c 4.577,0 8.293,3.716 8.293,8.293 v 23.414 c 0,4.577 -3.716,8.293 -8.293,8.293 H 208.293 C 203.716,390 200,386.284 200,381.707 v -23.414 c 0,-4.577 3.716,-8.293 8.293,-8.293 z"
     style="fill:none;stroke:#000000;stroke-width:0.0015968;stroke-linecap:square;stroke-miterlimit:2;stroke-dasharray:none"
     id="path52"
     clip-path="url(#clipPath704)" />
  <path
     d="m 213.753,400 h 562.494 c 7.591,0 13.753,6.162 13.753,13.753 v 82.494 C 790,503.838 783.838,510 776.247,510 H 213.753 C 206.162,510 200,503.838 200,496.247 V 413.753 C 200,406.162 206.162,400 213.753,400 Z"
     style="opacity:0.23;fill:#00ff00;stroke:none;stroke-miterlimit:10;stroke-width:0.0003992;stroke-dasharray:none"
     id="path54"
     clip-path="url(#clipPath698)" />
  <path
     d="m 213.753,400 h 562.494 c 7.591,0 13.753,6.162 13.753,13.753 v 82.494 C 790,503.838 783.838,510 776.247,510 H 213.753 C 206.162,510 200,503.838 200,496.247 V 413.753 C 200,406.162 206.162,400 213.753,400 Z"
     style="fill:none;stroke:#000000;stroke-width:0.0015968;stroke-linecap:square;stroke-miterlimit:2;stroke-dasharray:none"
     id="path56"
     clip-path="url(#clipPath692)" />
  <path
     d="m 226.272,440 h 257.456 c 3.461,0 6.272,2.811 6.272,6.272 v 37.456 c 0,3.461 -2.811,6.272 -6.272,6.272 H 226.272 C 222.811,490 220,487.189 220,483.728 v -37.456 c 0,-3.461 2.811,-6.272 6.272,-6.272 z"
     style="opacity:0.26;fill:#00ff00;stroke:none;stroke-miterlimit:10;stroke-width:0.0003992;stroke-dasharray:none"
     id="path58"
     clip-path="url(#clipPath686)" />
  <path
     d="m 226.272,440 h 257.456 c 3.461,0 6.272,2.811 6.272,6.272 v 37.456 c 0,3.461 -2.811,6.272 -6.272,6.272 H 226.272 C 222.811,490 220,487.189 220,483.728 v -37.456 c 0,-3.461 2.811,-6.272 6.272,-6.272 z"
     style="fill:none;stroke:#000000;stroke-width:0.0015968;stroke-linecap:square;stroke-miterlimit:2;stroke-dasharray:none"
     id="path60"
     clip-path="url(#clipPath680)" />
  <path
     d="m 506.272,440 h 257.456 c 3.461,0 6.272,2.811 6.272,6.272 v 37.456 c 0,3.461 -2.811,6.272 -6.272,6.272 H 506.272 C 502.811,490 500,487.189 500,483.728 v -37.456 c 0,-3.461 2.811,-6.272 6.272,-6.272 z"
     style="opacity:0.26;fill:#00ff00;stroke:none;stroke-miterlimit:10;stroke-width:0.0003992;stroke-dasharray:none"
     id="path62"
     clip-path="url(#clipPath674)" />
  <path
     d="m 506.272,440 h 257.456 c 3.461,0 6.272,2.811 6.272,6.272 v 37.456 c 0,3.461 -2.811,6.272 -6.272,6.272 H 506.272 C 502.811,490 500,487.189 500,483.728 v -37.456 c 0,-3.461 2.811,-6.272 6.272,-6.272 z"
     style="fill:none;stroke:#000000;stroke-width:0.0015968;stroke-linecap:square;stroke-miterlimit:2;stroke-dasharray:none"
     id="path64"
     clip-path="url(#clipPath668)" />
  <path
     d="m 506.272,10 h 137.456 c 3.461,0 6.272,2.811 6.272,6.272 v 77.456 c 0,3.461 -2.811,6.272 -6.272,6.272 H 506.272 C 502.811,100 500,97.189 500,93.728 V 16.272 C 500,12.811 502.811,10 506.272,10 Z"
     style="opacity:0.15;fill:#ff9900;stroke:none;stroke-miterlimit:10;stroke-width:0.0003992;stroke-dasharray:none"
     id="path66"
     clip-path="url(#clipPath662)" />
  <path
     d="m 506.272,10 h 137.456 c 3.461,0 6.272,2.811 6.272,6.272 v 77.456 c 0,3.461 -2.811,6.272 -6.272,6.272 H 506.272 C 502.811,100 500,97.189 500,93.728 V 16.272 C 500,12.811 502.811,10 506.272,10 Z"
     style="fill:none;stroke:#000000;stroke-width:0.0015968;stroke-linecap:square;stroke-miterlimit:2;stroke-dasharray:none"
     id="path68"
     clip-path="url(#clipPath656)" />
  <path
     d="m 666.06,10 h 127.88 c 3.345,0 6.06,2.715 6.06,6.06 v 77.88 c 0,3.345 -2.715,6.06 -6.06,6.06 H 666.06 C 662.715,100 660,97.285 660,93.94 V 16.06 c 0,-3.345 2.715,-6.06 6.06,-6.06 z"
     style="opacity:0.15;fill:#ff9900;stroke:none;stroke-miterlimit:10;stroke-width:0.0003992;stroke-dasharray:none"
     id="path70"
     clip-path="url(#clipPath650)" />
  <path
     d="m 666.06,10 h 127.88 c 3.345,0 6.06,2.715 6.06,6.06 v 77.88 c 0,3.345 -2.715,6.06 -6.06,6.06 H 666.06 C 662.715,100 660,97.285 660,93.94 V 16.06 c 0,-3.345 2.715,-6.06 6.06,-6.06 z"
     style="fill:none;stroke:#000000;stroke-width:0.0015968;stroke-linecap:square;stroke-miterlimit:2;stroke-dasharray:none"
     id="path72"
     clip-path="url(#clipPath644)" />
  <path
     d="m 204.004,220 h 101.992 c 2.21,0 4.004,1.794 4.004,4.004 v 41.992 c 0,2.21 -1.794,4.004 -4.004,4.004 H 204.004 c -2.21,0 -4.004,-1.794 -4.004,-4.004 v -41.992 c 0,-2.21 1.794,-4.004 4.004,-4.004 z"
     style="opacity:0.15;fill:#0000ff;stroke:none;stroke-miterlimit:10;stroke-width:0.0003992;stroke-dasharray:none"
     id="path74"
     clip-path="url(#clipPath638)" />
  <path
     d="m 204.004,220 h 101.992 c 2.21,0 4.004,1.794 4.004,4.004 v 41.992 c 0,2.21 -1.794,4.004 -4.004,4.004 H 204.004 c -2.21,0 -4.004,-1.794 -4.004,-4.004 v -41.992 c 0,-2.21 1.794,-4.004 4.004,-4.004 z"
     style="fill:none;stroke:#000000;stroke-width:0.0015968;stroke-linecap:square;stroke-miterlimit:2;stroke-dasharray:none"
     id="path76"
     clip-path="url(#clipPath632)" />
  <path
     d="m 324.004,220 h 101.992 c 2.21,0 4.004,1.794 4.004,4.004 v 41.992 c 0,2.21 -1.794,4.004 -4.004,4.004 H 324.004 c -2.21,0 -4.004,-1.794 -4.004,-4.004 v -41.992 c 0,-2.21 1.794,-4.004 4.004,-4.004 z"
     style="opacity:0.15;fill:#0000ff;stroke:none;stroke-miterlimit:10;stroke-width:0.0003992;stroke-dasharray:none"
     id="path78"
     clip-path="url(#clipPath626)" />
  <path
     d="m 324.004,220 h 101.992 c 2.21,0 4.004,1.794 4.004,4.004 v 41.992 c 0,2.21 -1.794,4.004 -4.004,4.004 H 324.004 c -2.21,0 -4.004,-1.794 -4.004,-4.004 v -41.992 c 0,-2.21 1.794,-4.004 4.004,-4.004 z"
     style="fill:none;stroke:#000000;stroke-width:0.0015968;stroke-linecap:square;stroke-miterlimit:2;stroke-dasharray:none"
     id="path80"
     clip-path="url(#clipPath620)" />
  <path
     d="m 564.004,220 h 101.992 c 2.21,0 4.004,1.794 4.004,4.004 v 41.992 c 0,2.21 -1.794,4.004 -4.004,4.004 H 564.004 c -2.21,0 -4.004,-1.794 -4.004,-4.004 v -41.992 c 0,-2.21 1.794,-4.004 4.004,-4.004 z"
     style="opacity:0.15;fill:#0000ff;stroke:none;stroke-miterlimit:10;stroke-width:0.0003992;stroke-dasharray:none"
     id="path82"
     clip-path="url(#clipPath614)" />
  <path
     d="m 564.004,220 h 101.992 c 2.21,0 4.004,1.794 4.004,4.004 v 41.992 c 0,2.21 -1.794,4.004 -4.004,4.004 H 564.004 c -2.21,0 -4.004,-1.794 -4.004,-4.004 v -41.992 c 0,-2.21 1.794,-4.004 4.004,-4.004 z"
     style="fill:none;stroke:#000000;stroke-width:0.0015968;stroke-linecap:square;stroke-miterlimit:2;stroke-dasharray:none"
     id="path84"
     clip-path="url(#clipPath608)" />
  <path
     d="m 444.004,220 h 101.992 c 2.21,0 4.004,1.794 4.004,4.004 v 41.992 c 0,2.21 -1.794,4.004 -4.004,4.004 H 444.004 c -2.21,0 -4.004,-1.794 -4.004,-4.004 v -41.992 c 0,-2.21 1.794,-4.004 4.004,-4.004 z"
     style="opacity:0.15;fill:#0000ff;stroke:none;stroke-miterlimit:10;stroke-width:0.0003992;stroke-dasharray:none"
     id="path86"
     clip-path="url(#clipPath602)" />
  <path
     d="m 444.004,220 h 101.992 c 2.21,0 4.004,1.794 4.004,4.004 v 41.992 c 0,2.21 -1.794,4.004 -4.004,4.004 H 444.004 c -2.21,0 -4.004,-1.794 -4.004,-4.004 v -41.992 c 0,-2.21 1.794,-4.004 4.004,-4.004 z"
     style="fill:none;stroke:#000000;stroke-width:0.0015968;stroke-linecap:square;stroke-miterlimit:2;stroke-dasharray:none"
     id="path88"
     clip-path="url(#clipPath596)" />
  <path
     d="m 684.004,220 h 101.992 c 2.21,0 4.004,1.794 4.004,4.004 v 41.992 c 0,2.21 -1.794,4.004 -4.004,4.004 H 684.004 c -2.21,0 -4.004,-1.794 -4.004,-4.004 v -41.992 c 0,-2.21 1.794,-4.004 4.004,-4.004 z"
     style="opacity:0.15;fill:#0000ff;stroke:none;stroke-miterlimit:10;stroke-width:0.0003992;stroke-dasharray:none"
     id="path90"
     clip-path="url(#clipPath590)" />
  <path
     d="m 684.004,220 h 101.992 c 2.21,0 4.004,1.794 4.004,4.004 v 41.992 c 0,2.21 -1.794,4.004 -4.004,4.004 H 684.004 c -2.21,0 -4.004,-1.794 -4.004,-4.004 v -41.992 c 0,-2.21 1.794,-4.004 4.004,-4.004 z"
     style="fill:none;stroke:#000000;stroke-width:0.0015968;stroke-linecap:square;stroke-miterlimit:2;stroke-dasharray:none"
     id="path92"
     clip-path="url(#clipPath584)" />
  <path
     d="m 506.501,160 h 276.998 c 3.588,0 6.501,2.913 6.501,6.501 v 36.998 c 0,3.588 -2.913,6.501 -6.501,6.501 H 506.501 C 502.913,210 500,207.087 500,203.499 v -36.998 c 0,-3.588 2.913,-6.501 6.501,-6.501 z"
     style="opacity:0.15;fill:#0000ff;stroke:none;stroke-miterlimit:10;stroke-width:0.0003992;stroke-dasharray:none"
     id="path94"
     clip-path="url(#clipPath578)" />
  <path
     d="m 506.501,160 h 276.998 c 3.588,0 6.501,2.913 6.501,6.501 v 36.998 c 0,3.588 -2.913,6.501 -6.501,6.501 H 506.501 C 502.913,210 500,207.087 500,203.499 v -36.998 c 0,-3.588 2.913,-6.501 6.501,-6.501 z"
     style="fill:none;stroke:#000000;stroke-width:0.0015968;stroke-linecap:square;stroke-miterlimit:2;stroke-dasharray:none"
     id="path96"
     clip-path="url(#clipPath572)" />
  <text
     style="font-style:normal;font-weight:normal;font-size:14px;font-family:'Open Sans';fill:#000000;stroke:none;-inkscape-font-specification:'Open Sans, Normal';font-stretch:normal;font-variant:normal;font-variant-ligatures:normal;font-variant-caps:normal;font-variant-numeric:normal;font-variant-east-asian:normal"
     id="text98"
     x="231.397"
     y="60.431">Customize Workspace Instance</text>
  <text
     style="font-style:normal;font-weight:normal;font-size:14px;font-family:'Open Sans';fill:#000000;stroke:none;-inkscape-font-specification:'Open Sans, Normal';font-stretch:normal;font-variant:normal;font-variant-ligatures:normal;font-variant-caps:normal;font-variant-numeric:normal;font-variant-east-asian:normal"
     id="text107"
     x="216.48599"
     y="190.431">NPM: @openfin/workspace-platform</text>
  <text
     style="font-style:normal;font-weight:normal;font-size:14px;font-family:'Open Sans';fill:#000000;stroke:none;-inkscape-font-specification:'Open Sans, Normal';font-stretch:normal;font-variant:normal;font-variant-ligatures:normal;font-variant-caps:normal;font-variant-numeric:normal;font-variant-east-asian:normal"
     id="text116"
     x="306.354"
     y="471.983">Chromium</text>
  <text
     style="font-style:normal;font-variant:normal;font-weight:normal;font-stretch:normal;font-size:14px;font-family:'Open Sans';-inkscape-font-specification:'Open Sans, Normal';font-variant-ligatures:normal;font-variant-caps:normal;font-variant-numeric:normal;font-variant-east-asian:normal;fill:#000000;stroke:none"
     id="text125"
     x="415.39099"
     y="424.483">OpenFin Runtime</text>
  <text
     style="font-style:normal;font-weight:normal;font-size:14px;font-family:'Open Sans';fill:#000000;stroke:none;-inkscape-font-specification:'Open Sans, Normal';font-stretch:normal;font-variant:normal;font-variant-ligatures:normal;font-variant-caps:normal;font-variant-numeric:normal;font-variant-east-asian:normal"
     id="text134"
     x="411.60699"
     y="376.983">OpenFin Core APIs</text>
  <text
     style="font-style:normal;font-weight:normal;font-size:14px;font-family:'Open Sans';fill:#000000;stroke:none;-inkscape-font-specification:'Open Sans, Normal';font-stretch:normal;font-variant:normal;font-variant-ligatures:normal;font-variant-caps:normal;font-variant-numeric:normal;font-variant-east-asian:normal"
     id="text143"
     x="404.479"
     y="141.983">OpenFin Workspace</text>
  <text
     style="font-style:normal;font-weight:normal;font-size:14px;font-family:'Open Sans';fill:#000000;stroke:none;-inkscape-font-specification:'Open Sans, Normal';font-stretch:normal;font-variant:normal;font-variant-ligatures:normal;font-variant-caps:normal;font-variant-numeric:normal;font-variant-east-asian:normal"
     id="text152"
     x="449.36899"
     y="331.983">Container</text>
  <text
     style="font-style:normal;font-weight:normal;font-size:14px;font-family:'Open Sans';fill:#000000;stroke:none;-inkscape-font-specification:'Open Sans, Normal';font-stretch:normal;font-variant:normal;font-variant-ligatures:normal;font-variant-caps:normal;font-variant-numeric:normal;font-variant-east-asian:normal"
     id="text161"
     x="20"
     y="331.983">Native Adapters</text>
  <text
     style="font-style:normal;font-weight:normal;font-size:14px;font-family:'Open Sans';fill:#000000;stroke:none;-inkscape-font-specification:'Open Sans, Normal';font-stretch:normal;font-variant:normal;font-variant-ligatures:normal;font-variant-caps:normal;font-variant-numeric:normal;font-variant-east-asian:normal"
     id="text170"
     x="532.021"
     y="41.366001">Notification</text>
  <text
     style="font-style:normal;font-weight:normal;font-size:14px;font-family:'Open Sans';fill:#000000;stroke:none;-inkscape-font-specification:'Open Sans, Normal';font-stretch:normal;font-variant:normal;font-variant-ligatures:normal;font-variant-caps:normal;font-variant-numeric:normal;font-variant-east-asian:normal"
     id="text172"
     x="548.97699"
     y="60.431">Service</text>
  <text
     style="font-style:normal;font-weight:normal;font-size:14px;font-family:'Open Sans';fill:#000000;stroke:none;-inkscape-font-specification:'Open Sans, Normal';font-stretch:normal;font-variant:normal;font-variant-ligatures:normal;font-variant-caps:normal;font-variant-numeric:normal;font-variant-east-asian:normal"
     id="text174"
     x="544"
     y="79.497002">Instance</text>
  <text
     style="font-style:normal;font-weight:normal;font-size:14px;font-family:'Open Sans';fill:#000000;stroke:none;-inkscape-font-specification:'Open Sans, Normal';font-stretch:normal;font-variant:normal;font-variant-ligatures:normal;font-variant-caps:normal;font-variant-numeric:normal;font-variant-east-asian:normal"
     id="text183"
     x="690.50702"
     y="41.366001">Workspace</text>
  <text
     style="font-style:normal;font-weight:normal;font-size:14px;font-family:'Open Sans';fill:#000000;stroke:none;-inkscape-font-specification:'Open Sans, Normal';font-stretch:normal;font-variant:normal;font-variant-ligatures:normal;font-variant-caps:normal;font-variant-numeric:normal;font-variant-east-asian:normal"
     id="text185"
     x="684.71301"
     y="60.431">Components</text>
  <text
     style="font-style:normal;font-weight:normal;font-size:14px;font-family:'Open Sans';fill:#000000;stroke:none;-inkscape-font-specification:'Open Sans, Normal';font-stretch:normal;font-variant:normal;font-variant-ligatures:normal;font-variant-caps:normal;font-variant-numeric:normal;font-variant-east-asian:normal"
     id="text187"
     x="699"
     y="79.497002">Instance</text>
  <text
     style="font-style:normal;font-weight:normal;font-size:14px;font-family:'Open Sans';fill:#000000;stroke:none;-inkscape-font-specification:'Open Sans, Normal';font-stretch:normal;font-variant:normal;font-variant-ligatures:normal;font-variant-caps:normal;font-variant-numeric:normal;font-variant-east-asian:normal"
     id="text196"
     x="224.99899"
     y="250.431">Browser</text>
  <text
     style="font-style:normal;font-weight:normal;font-size:14px;font-family:'Open Sans';fill:#000000;stroke:none;-inkscape-font-specification:'Open Sans, Normal';font-stretch:normal;font-variant:normal;font-variant-ligatures:normal;font-variant-caps:normal;font-variant-numeric:normal;font-variant-east-asian:normal"
     id="text205"
     x="332.021"
     y="240.89799">Notification</text>
  <text
     style="font-style:normal;font-weight:normal;font-size:14px;font-family:'Open Sans';fill:#000000;stroke:none;-inkscape-font-specification:'Open Sans, Normal';font-stretch:normal;font-variant:normal;font-variant-ligatures:normal;font-variant-caps:normal;font-variant-numeric:normal;font-variant-east-asian:normal"
     id="text207"
     x="350.45001"
     y="259.96399">Center</text>
  <text
     style="font-style:normal;font-weight:normal;font-size:14px;font-family:'Open Sans';fill:#000000;stroke:none;-inkscape-font-specification:'Open Sans, Normal';font-stretch:normal;font-variant:normal;font-variant-ligatures:normal;font-variant-caps:normal;font-variant-numeric:normal;font-variant-east-asian:normal"
     id="text216"
     x="473.30099"
     y="250.431">Home</text>
  <text
     style="font-style:normal;font-weight:normal;font-size:14px;font-family:'Open Sans';fill:#000000;stroke:none;-inkscape-font-specification:'Open Sans, Normal';font-stretch:normal;font-variant:normal;font-variant-ligatures:normal;font-variant-caps:normal;font-variant-numeric:normal;font-variant-east-asian:normal"
     id="text225"
     x="595.45801"
     y="250.431">Store</text>
  <text
     style="font-style:normal;font-weight:normal;font-size:14px;font-family:'Open Sans';fill:#000000;stroke:none;-inkscape-font-specification:'Open Sans, Normal';font-stretch:normal;font-variant:normal;font-variant-ligatures:normal;font-variant-caps:normal;font-variant-numeric:normal;font-variant-east-asian:normal"
     id="text234"
     x="716.54401"
     y="250.431">Dock</text>
  <text
     style="font-style:normal;font-weight:normal;font-size:14px;font-family:'Open Sans';fill:#000000;stroke:none;-inkscape-font-specification:'Open Sans, Normal';font-stretch:normal;font-variant:normal;font-variant-ligatures:normal;font-variant-caps:normal;font-variant-numeric:normal;font-variant-east-asian:normal"
     id="text243"
     x="549.66699"
     y="190.431">NPM: @openfin/workspace</text>
  <text
     style="font-style:normal;font-weight:normal;font-size:14px;font-family:'Open Sans';fill:#000000;stroke:none;-inkscape-font-specification:'Open Sans, Normal';font-stretch:normal;font-variant:normal;font-variant-ligatures:normal;font-variant-caps:normal;font-variant-numeric:normal;font-variant-east-asian:normal"
     id="text252"
     x="596.78699"
     y="470.55399">Electron</text>
  <text
     style="font-style:normal;font-weight:normal;font-size:14px;font-family:'Open Sans';fill:#000000;stroke:none;-inkscape-font-specification:'Open Sans, Normal';font-stretch:normal;font-variant:normal;font-variant-ligatures:normal;font-variant-caps:normal;font-variant-numeric:normal;font-variant-east-asian:normal"
     id="text261"
     x="820"
     y="329.23901">OpenFin</text>
  <text
     style="font-style:normal;font-weight:normal;font-size:14px;font-family:'Open Sans';fill:#000000;stroke:none;-inkscape-font-specification:'Open Sans, Normal';font-stretch:normal;font-variant:normal;font-variant-ligatures:normal;font-variant-caps:normal;font-variant-numeric:normal;font-variant-east-asian:normal"
     id="text263"
     x="820"
     y="353.75201">Runtime</text>
  <text
     style="font-style:normal;font-weight:normal;font-size:14px;font-family:'Open Sans';fill:#000000;stroke:none;-inkscape-font-specification:'Open Sans, Normal';font-stretch:normal;font-variant:normal;font-variant-ligatures:normal;font-variant-caps:normal;font-variant-numeric:normal;font-variant-east-asian:normal"
     id="text265"
     x="820"
     y="378.26501">Version</text>
  <text
     style="font-style:normal;font-weight:normal;font-size:14px;font-family:'Open Sans';fill:#000000;stroke:none;-inkscape-font-specification:'Open Sans, Normal';font-stretch:normal;font-variant:normal;font-variant-ligatures:normal;font-variant-caps:normal;font-variant-numeric:normal;font-variant-east-asian:normal"
     id="text267"
     x="820"
     y="402.77701">Manager (RVM)</text>
  <text
     style="font-style:normal;font-weight:normal;font-size:14px;font-family:'Open Sans';fill:#000000;stroke:none;-inkscape-font-specification:'Open Sans, Normal';font-stretch:normal;font-variant:normal;font-variant-ligatures:normal;font-variant-caps:normal;font-variant-numeric:normal;font-variant-east-asian:normal"
     id="text276"
     x="30"
     y="375.431">.NET Adapter</text>
  <text
     style="font-style:normal;font-weight:normal;font-size:14px;font-family:'Open Sans';fill:#000000;stroke:none;-inkscape-font-specification:'Open Sans, Normal';font-stretch:normal;font-variant:normal;font-variant-ligatures:normal;font-variant-caps:normal;font-variant-numeric:normal;font-variant-east-asian:normal"
     id="text285"
     x="31.039"
     y="425.431">Java Adapter</text>
  <text
     style="font-style:normal;font-weight:normal;font-size:14px;font-family:'Open Sans';fill:#000000;stroke:none;-inkscape-font-specification:'Open Sans, Normal';font-stretch:normal;font-variant:normal;font-variant-ligatures:normal;font-variant-caps:normal;font-variant-numeric:normal;font-variant-east-asian:normal"
     id="text294"
     x="30"
     y="475.431">NodeJs Adapter</text>
</svg>
