<svg width="16" height="16" viewBox="0 0 16 16" fill="none" xmlns="http://www.w3.org/2000/svg">
    <path d="M14.4141 5.19998C13.5937 3.33062 11.9788 1.88582 9.99886 1.29432C10.6177 2.26207 11.0517 3.66347 11.2886 5.19998H14.4141ZM14.7771 9.74998C14.922 9.19033 15 8.60443 15 7.99998C15 7.39553 14.922 6.80963 14.7771 6.24998H11.4171C11.4713 6.82923 11.5 7.41688 11.5 7.99998C11.5 8.58308 11.4713 9.17073 11.4171 9.74998H14.7771ZM4.50001 7.99998C4.50001 7.41688 4.52871 6.82923 4.58296 6.24998H1.22295C1.07805 6.80963 1 7.39553 1 7.99998C1 8.60443 1.07805 9.19033 1.22295 9.74998H4.58296C4.52871 9.17073 4.50001 8.58308 4.50001 7.99998ZM10.45 7.99998C10.45 7.38958 10.4168 6.80648 10.3618 6.24998H5.63821C5.58326 6.80648 5.55001 7.38958 5.55001 7.99998C5.55001 8.61038 5.58326 9.19348 5.63821 9.74998H10.3618C10.4168 9.19348 10.45 8.61038 10.45 7.99998ZM10.2267 5.19998C9.80741 2.67717 8.86556 0.999969 8.00001 0.999969C7.13446 0.999969 6.19261 2.67717 5.77331 5.19998H10.2267ZM5.77331 10.8C6.19261 13.3228 7.13481 15 8.00001 15C8.86521 15 9.80741 13.3228 10.2267 10.8H5.77331ZM4.71141 5.19998C4.94836 3.66347 5.38236 2.26207 6.00116 1.29432C4.0212 1.88582 2.4063 3.33062 1.5859 5.19998H4.71141ZM11.2886 10.8C11.0517 12.3365 10.6177 13.7379 9.99886 14.7056C11.9788 14.1141 13.5937 12.6697 14.4141 10.8H11.2886ZM1.5859 10.8C2.4063 12.6693 4.0212 14.1141 6.00116 14.7056C5.38236 13.7379 4.94836 12.3365 4.71141 10.8H1.5859Z"
    fill="#050B19"
    fill-rule="evenodd"
    clip-rule="evenodd"
    />
</svg>
